%TF.GenerationSoftware,KiCad,Pcbnew,7.0.7*%
%TF.CreationDate,2023-12-07T16:32:10+01:00*%
%TF.ProjectId,SensitiveSole,53656e73-6974-4697-9665-536f6c652e6b,1.0*%
%TF.SameCoordinates,Original*%
%TF.FileFunction,Soldermask,Bot*%
%TF.FilePolarity,Negative*%
%FSLAX46Y46*%
G04 Gerber Fmt 4.6, Leading zero omitted, Abs format (unit mm)*
G04 Created by KiCad (PCBNEW 7.0.7) date 2023-12-07 16:32:10*
%MOMM*%
%LPD*%
G01*
G04 APERTURE LIST*
G04 Aperture macros list*
%AMRoundRect*
0 Rectangle with rounded corners*
0 $1 Rounding radius*
0 $2 $3 $4 $5 $6 $7 $8 $9 X,Y pos of 4 corners*
0 Add a 4 corners polygon primitive as box body*
4,1,4,$2,$3,$4,$5,$6,$7,$8,$9,$2,$3,0*
0 Add four circle primitives for the rounded corners*
1,1,$1+$1,$2,$3*
1,1,$1+$1,$4,$5*
1,1,$1+$1,$6,$7*
1,1,$1+$1,$8,$9*
0 Add four rect primitives between the rounded corners*
20,1,$1+$1,$2,$3,$4,$5,0*
20,1,$1+$1,$4,$5,$6,$7,0*
20,1,$1+$1,$6,$7,$8,$9,0*
20,1,$1+$1,$8,$9,$2,$3,0*%
G04 Aperture macros list end*
%ADD10C,2.100000*%
%ADD11C,0.700000*%
%ADD12RoundRect,0.101600X-0.800000X0.150000X-0.800000X-0.150000X0.800000X-0.150000X0.800000X0.150000X0*%
%ADD13RoundRect,0.237500X0.250000X0.237500X-0.250000X0.237500X-0.250000X-0.237500X0.250000X-0.237500X0*%
%ADD14RoundRect,0.237500X-0.237500X0.300000X-0.237500X-0.300000X0.237500X-0.300000X0.237500X0.300000X0*%
%ADD15R,1.750000X0.450000*%
%ADD16RoundRect,0.237500X-0.250000X-0.237500X0.250000X-0.237500X0.250000X0.237500X-0.250000X0.237500X0*%
G04 APERTURE END LIST*
D10*
%TO.C,REF\u002A\u002A*%
X122000014Y-118000000D03*
%TD*%
%TO.C,REF\u002A\u002A*%
X151000000Y-118000000D03*
%TD*%
%TO.C,REF\u002A\u002A*%
X151000000Y-88999986D03*
%TD*%
%TO.C,REF\u002A\u002A*%
X122000014Y-88999986D03*
%TD*%
D11*
%TO.C,BOTTOM_DF12*%
X122000014Y-98199986D03*
X122000014Y-108799986D03*
D12*
X125300114Y-99249986D03*
X121699914Y-99249986D03*
X125300114Y-99749986D03*
X121699914Y-99749986D03*
X125300114Y-100249986D03*
X121699914Y-100249986D03*
X125300114Y-100749986D03*
X121699914Y-100749986D03*
X125300114Y-101249986D03*
X121699914Y-101249986D03*
X125300114Y-101749986D03*
X121699914Y-101749986D03*
X125300114Y-102249986D03*
X121699914Y-102249986D03*
X125300114Y-102749986D03*
X121699914Y-102749986D03*
X125300114Y-103249986D03*
X121699914Y-103249986D03*
X125300114Y-103749986D03*
X121699914Y-103749986D03*
X125300114Y-104249986D03*
X121699914Y-104249986D03*
X125300114Y-104749986D03*
X121699914Y-104749986D03*
X125300114Y-105249986D03*
X121699914Y-105249986D03*
X125300114Y-105749986D03*
X121699914Y-105749986D03*
X125300114Y-106249986D03*
X121699914Y-106249986D03*
X125300114Y-106749986D03*
X121699914Y-106749986D03*
X125300114Y-107249986D03*
X121699914Y-107249986D03*
X125300114Y-107749986D03*
X121699914Y-107749986D03*
%TD*%
D13*
%TO.C,6*%
X145912500Y-107850000D03*
X144087500Y-107850000D03*
%TD*%
%TO.C,4*%
X145912500Y-110016668D03*
X144087500Y-110016668D03*
%TD*%
%TO.C,2*%
X145912500Y-112333332D03*
X144087500Y-112333332D03*
%TD*%
D14*
%TO.C,C2*%
X122228000Y-111379000D03*
X122228000Y-113104000D03*
%TD*%
%TO.C,C1*%
X125538000Y-111379000D03*
X125538000Y-113104000D03*
%TD*%
D13*
%TO.C,0*%
X145912500Y-114500000D03*
X144087500Y-114500000D03*
%TD*%
D15*
%TO.C,COLS*%
X137100000Y-107925000D03*
X137100000Y-108575000D03*
X137100000Y-109225000D03*
X137100000Y-109875000D03*
X137100000Y-110525000D03*
X137100000Y-111175000D03*
X137100000Y-111825000D03*
X137100000Y-112475000D03*
X137100000Y-113125000D03*
X137100000Y-113775000D03*
X137100000Y-114425000D03*
X137100000Y-115075000D03*
X129900000Y-115075000D03*
X129900000Y-114425000D03*
X129900000Y-113775000D03*
X129900000Y-113125000D03*
X129900000Y-112475000D03*
X129900000Y-111825000D03*
X129900000Y-111175000D03*
X129900000Y-110525000D03*
X129900000Y-109875000D03*
X129900000Y-109225000D03*
X129900000Y-108575000D03*
X129900000Y-107925000D03*
%TD*%
D13*
%TO.C,1*%
X149412500Y-113416650D03*
X147587500Y-113416650D03*
%TD*%
D14*
%TO.C,0*%
X143610000Y-89997500D03*
X143610000Y-91722500D03*
%TD*%
D13*
%TO.C,5*%
X149412500Y-108933350D03*
X147587500Y-108933350D03*
%TD*%
D16*
%TO.C,R8*%
X127680000Y-105249986D03*
X129505000Y-105249986D03*
%TD*%
D15*
%TO.C,ROWS*%
X132900000Y-98075000D03*
X132900000Y-97425000D03*
X132900000Y-96775000D03*
X132900000Y-96125000D03*
X132900000Y-95475000D03*
X132900000Y-94825000D03*
X132900000Y-94175000D03*
X132900000Y-93525000D03*
X132900000Y-92875000D03*
X132900000Y-92225000D03*
X132900000Y-91575000D03*
X132900000Y-90925000D03*
X140100000Y-90925000D03*
X140100000Y-91575000D03*
X140100000Y-92225000D03*
X140100000Y-92875000D03*
X140100000Y-93525000D03*
X140100000Y-94175000D03*
X140100000Y-94825000D03*
X140100000Y-95475000D03*
X140100000Y-96125000D03*
X140100000Y-96775000D03*
X140100000Y-97425000D03*
X140100000Y-98075000D03*
%TD*%
D13*
%TO.C,3*%
X149412500Y-111208325D03*
X147587500Y-111208325D03*
%TD*%
M02*
