%TF.GenerationSoftware,KiCad,Pcbnew,7.0.7*%
%TF.CreationDate,2023-12-07T16:32:09+01:00*%
%TF.ProjectId,SensitiveSole,53656e73-6974-4697-9665-536f6c652e6b,1.0*%
%TF.SameCoordinates,Original*%
%TF.FileFunction,Copper,L1,Top*%
%TF.FilePolarity,Positive*%
%FSLAX46Y46*%
G04 Gerber Fmt 4.6, Leading zero omitted, Abs format (unit mm)*
G04 Created by KiCad (PCBNEW 7.0.7) date 2023-12-07 16:32:09*
%MOMM*%
%LPD*%
G01*
G04 APERTURE LIST*
%TA.AperFunction,SMDPad,CuDef*%
%ADD10R,0.400000X1.000000*%
%TD*%
%TA.AperFunction,SMDPad,CuDef*%
%ADD11R,2.000000X1.300000*%
%TD*%
%TA.AperFunction,SMDPad,CuDef*%
%ADD12R,1.500000X0.900000*%
%TD*%
%TA.AperFunction,ViaPad*%
%ADD13C,0.800000*%
%TD*%
%TA.AperFunction,Conductor*%
%ADD14C,0.250000*%
%TD*%
%TA.AperFunction,Conductor*%
%ADD15C,0.200000*%
%TD*%
G04 APERTURE END LIST*
D10*
%TO.P,FPC1,1,Pin_1*%
%TO.N,unconnected-(FPC1-Pin_1-Pad1)*%
X125000000Y-102700000D03*
%TO.P,FPC1,2,Pin_2*%
%TO.N,/ROW0*%
X126000000Y-102700000D03*
%TO.P,FPC1,3,Pin_3*%
%TO.N,/ROW1*%
X127000000Y-102700000D03*
%TO.P,FPC1,4,Pin_4*%
%TO.N,/ROW2*%
X128000000Y-102700000D03*
%TO.P,FPC1,5,Pin_5*%
%TO.N,/ROW3*%
X129000000Y-102700000D03*
%TO.P,FPC1,6,Pin_6*%
%TO.N,/ROW4*%
X130000000Y-102700000D03*
%TO.P,FPC1,7,Pin_7*%
%TO.N,/ROW5*%
X131000000Y-102700000D03*
%TO.P,FPC1,8,Pin_8*%
%TO.N,/ROW6*%
X132000000Y-102700000D03*
%TO.P,FPC1,9,Pin_9*%
%TO.N,/ROW7*%
X133000000Y-102700000D03*
%TO.P,FPC1,10,Pin_10*%
%TO.N,/ROW8*%
X134000000Y-102700000D03*
%TO.P,FPC1,11,Pin_11*%
%TO.N,/ROW9*%
X135000000Y-102700000D03*
%TO.P,FPC1,12,Pin_12*%
%TO.N,/ROW10*%
X136000000Y-102700000D03*
%TO.P,FPC1,13,Pin_13*%
%TO.N,/ROW11*%
X137000000Y-102700000D03*
%TO.P,FPC1,14,Pin_14*%
%TO.N,/ROW12*%
X138000000Y-102700000D03*
%TO.P,FPC1,15,Pin_15*%
%TO.N,/ROW13*%
X139000000Y-102700000D03*
%TO.P,FPC1,16,Pin_16*%
%TO.N,/ROW14*%
X140000000Y-102700000D03*
%TO.P,FPC1,17,Pin_17*%
%TO.N,/COL6*%
X141000000Y-102700000D03*
%TO.P,FPC1,18,Pin_18*%
%TO.N,/COL5*%
X142000000Y-102700000D03*
%TO.P,FPC1,19,Pin_19*%
%TO.N,/COL4*%
X143000000Y-102700000D03*
%TO.P,FPC1,20,Pin_20*%
%TO.N,/COL3*%
X144000000Y-102700000D03*
%TO.P,FPC1,21,Pin_21*%
%TO.N,/COL2*%
X145000000Y-102700000D03*
%TO.P,FPC1,22,Pin_22*%
%TO.N,/COL1*%
X146000000Y-102700000D03*
%TO.P,FPC1,23,Pin_23*%
%TO.N,/COL0*%
X147000000Y-102700000D03*
%TO.P,FPC1,24,Pin_24*%
%TO.N,unconnected-(FPC1-Pin_24-Pad24)*%
X148000000Y-102700000D03*
D11*
%TO.P,FPC1,MP*%
%TO.N,N/C*%
X122200000Y-105400000D03*
X150800000Y-105400000D03*
%TD*%
D12*
%TO.P,D1,1,VSS*%
%TO.N,GND*%
X134050000Y-92700000D03*
%TO.P,D1,2,DIN*%
%TO.N,Net-(D1-DIN)*%
X134050000Y-96000000D03*
%TO.P,D1,3,VDD*%
%TO.N,Net-(D1-VDD)*%
X138950000Y-96000000D03*
%TO.P,D1,4,DOUT*%
%TO.N,unconnected-(D1-DOUT-Pad4)*%
X138950000Y-92700000D03*
%TD*%
D13*
%TO.N,GND*%
X122000014Y-95504000D03*
X149098000Y-92964000D03*
X132088000Y-113275000D03*
X139192000Y-106426000D03*
X130810000Y-90925000D03*
X149098000Y-101092000D03*
%TO.N,+3.3V*%
X138600000Y-98075000D03*
X129900000Y-106934000D03*
X127000000Y-108966000D03*
X133329517Y-89172500D03*
%TO.N,/IO2*%
X126900000Y-107749986D03*
X134910000Y-97532500D03*
%TO.N,/COL6*%
X141000000Y-107850000D03*
%TO.N,/COL5*%
X142000000Y-108933300D03*
%TO.N,/COL4*%
X143000000Y-110016700D03*
%TO.N,/COL3*%
X144000000Y-111208300D03*
%TO.N,/COL2*%
X143000000Y-112333300D03*
%TO.N,/COL1*%
X142000000Y-113416700D03*
%TO.N,/COL0*%
X141000000Y-114500000D03*
%TO.N,/ROW7*%
X133000000Y-98933000D03*
%TO.N,/ROW6*%
X132000000Y-100360000D03*
%TO.N,/ROW5*%
X131000000Y-96125000D03*
%TO.N,/ROW4*%
X130000000Y-96125000D03*
%TO.N,/ROW3*%
X129000000Y-96125000D03*
%TO.N,/ROW2*%
X128000000Y-97275000D03*
%TO.N,/ROW1*%
X127000000Y-97275000D03*
%TO.N,/ROW0*%
X126000000Y-97275000D03*
%TO.N,/ROW14*%
X140000000Y-104200000D03*
%TO.N,/ROW13*%
X139000000Y-104200000D03*
%TO.N,/ROW12*%
X138000000Y-104200000D03*
%TO.N,/ROW11*%
X137000000Y-104200000D03*
%TO.N,/ROW10*%
X136000000Y-100363500D03*
%TO.N,/ROW9*%
X135000000Y-100363500D03*
%TO.N,/ROW8*%
X134000000Y-100360000D03*
%TO.N,Net-(D1-VDD)*%
X143610000Y-93070000D03*
%TO.N,Net-(D1-DIN)*%
X131034000Y-105249986D03*
%TD*%
D14*
%TO.N,+3.3V*%
X136880761Y-96355761D02*
X138600000Y-98075000D01*
X127000000Y-108966000D02*
X129250000Y-108966000D01*
X136500000Y-90472500D02*
X136500000Y-95436522D01*
X133329517Y-89172500D02*
X135200000Y-89172500D01*
X129900000Y-108316000D02*
X129900000Y-106934000D01*
X129250000Y-108966000D02*
G75*
G03*
X129900000Y-108316000I0J650000D01*
G01*
X136500000Y-90472500D02*
G75*
G03*
X135200000Y-89172500I-1300000J0D01*
G01*
X136499985Y-95436522D02*
G75*
G03*
X136880762Y-96355760I1300015J22D01*
G01*
%TO.N,/IO2*%
X124475000Y-105055747D02*
X124475000Y-97487069D01*
X124665381Y-97027449D02*
X126296568Y-95396262D01*
X126900000Y-107749986D02*
X124665380Y-105515366D01*
X134910000Y-97532500D02*
X134910000Y-97532500D01*
X133327239Y-96990000D02*
X134367500Y-96990000D01*
X131464263Y-95396263D02*
X132867620Y-96799620D01*
X126756187Y-95205882D02*
X131004643Y-95205882D01*
X124474967Y-105055747D02*
G75*
G03*
X124665380Y-105515366I650033J47D01*
G01*
X132867601Y-96799639D02*
G75*
G03*
X133327239Y-96990000I459599J459639D01*
G01*
X131464245Y-95396281D02*
G75*
G03*
X131004643Y-95205882I-459645J-459619D01*
G01*
X134910000Y-97532500D02*
G75*
G03*
X134367500Y-96990000I-542500J0D01*
G01*
X124665397Y-97027465D02*
G75*
G03*
X124475000Y-97487069I459603J-459635D01*
G01*
X126756187Y-95205878D02*
G75*
G03*
X126296568Y-95396262I13J-650022D01*
G01*
%TO.N,/COL6*%
X141000000Y-102700000D02*
X141000000Y-107850000D01*
%TO.N,/COL5*%
X142000000Y-102700000D02*
X142000000Y-108933300D01*
%TO.N,/COL4*%
X143000000Y-102700000D02*
X143000000Y-110016700D01*
%TO.N,/COL3*%
X144000000Y-102700000D02*
X144000000Y-111208300D01*
%TO.N,/COL2*%
X143081100Y-112318800D02*
X144000000Y-112318800D01*
X145000000Y-111318800D02*
X145000000Y-102700000D01*
X144000000Y-112318800D02*
G75*
G03*
X145000000Y-111318800I0J1000000D01*
G01*
%TO.N,/COL1*%
X142072300Y-113411000D02*
X144000000Y-113411000D01*
X146000000Y-111411000D02*
X146000000Y-102700000D01*
X144000000Y-113411000D02*
G75*
G03*
X146000000Y-111411000I0J2000000D01*
G01*
%TO.N,/COL0*%
X141063400Y-114503200D02*
X144000000Y-114503200D01*
X147000000Y-111503200D02*
X147000000Y-102700000D01*
X144000000Y-114503200D02*
G75*
G03*
X147000000Y-111503200I0J3000000D01*
G01*
%TO.N,/ROW7*%
X133000000Y-102700000D02*
X133000000Y-98933000D01*
%TO.N,/ROW6*%
X132000000Y-102700000D02*
X132000000Y-100360000D01*
D15*
%TO.N,/ROW5*%
X131000000Y-102700000D02*
X131000000Y-96125000D01*
%TO.N,/ROW4*%
X130000000Y-102700000D02*
X130000000Y-96125000D01*
%TO.N,/ROW3*%
X129000000Y-102700000D02*
X129000000Y-96125000D01*
%TO.N,/ROW2*%
X128000000Y-102700000D02*
X128000000Y-97275000D01*
%TO.N,/ROW1*%
X127000000Y-102700000D02*
X127000000Y-97275000D01*
%TO.N,/ROW0*%
X126000000Y-102700000D02*
X126000000Y-97275000D01*
D14*
%TO.N,/ROW14*%
X140000000Y-104200000D02*
X140000000Y-102700000D01*
%TO.N,/ROW13*%
X139000000Y-102700000D02*
X139000000Y-104200000D01*
%TO.N,/ROW12*%
X138000000Y-102700000D02*
X138000000Y-104200000D01*
%TO.N,/ROW11*%
X137000000Y-102700000D02*
X137000000Y-104200000D01*
%TO.N,/ROW10*%
X136000000Y-102700000D02*
X136000000Y-100363500D01*
%TO.N,/ROW9*%
X135000000Y-102700000D02*
X135000000Y-100363500D01*
%TO.N,/ROW8*%
X134000000Y-102700000D02*
X134000000Y-100360000D01*
%TO.N,Net-(D1-VDD)*%
X143610000Y-93070000D02*
X143610000Y-94650000D01*
X142310000Y-95950000D02*
X138950000Y-95950000D01*
X142310000Y-95950000D02*
G75*
G03*
X143610000Y-94650000I0J1300000D01*
G01*
%TO.N,Net-(D1-DIN)*%
X126829976Y-94562455D02*
X132123977Y-94562455D01*
X123750000Y-108800000D02*
X123750000Y-97642431D01*
X124130761Y-96723192D02*
X125910737Y-94943216D01*
X131034000Y-105249986D02*
X131034000Y-108800000D01*
X133043216Y-94943216D02*
X134050000Y-95950000D01*
X129734000Y-110100000D02*
X125050000Y-110100000D01*
X123750000Y-108800000D02*
G75*
G03*
X125050000Y-110100000I1300000J0D01*
G01*
X129734000Y-110100000D02*
G75*
G03*
X131034000Y-108800000I0J1300000D01*
G01*
X126829976Y-94562422D02*
G75*
G03*
X125910737Y-94943216I24J-1299978D01*
G01*
X124130746Y-96723177D02*
G75*
G03*
X123750000Y-97642431I919254J-919223D01*
G01*
X133043237Y-94943195D02*
G75*
G03*
X132123977Y-94562455I-919237J-919305D01*
G01*
%TD*%
%TA.AperFunction,Conductor*%
%TO.N,GND*%
G36*
X151002038Y-87025618D02*
G01*
X151253686Y-87042114D01*
X151261722Y-87043172D01*
X151507061Y-87091974D01*
X151514898Y-87094073D01*
X151751767Y-87174482D01*
X151759267Y-87177589D01*
X151869904Y-87232148D01*
X151983618Y-87288226D01*
X151990642Y-87292283D01*
X152119094Y-87378111D01*
X152198632Y-87431257D01*
X152205068Y-87436196D01*
X152393133Y-87601126D01*
X152398873Y-87606866D01*
X152563803Y-87794931D01*
X152568744Y-87801369D01*
X152589642Y-87832645D01*
X152707716Y-88009357D01*
X152711776Y-88016387D01*
X152822410Y-88240732D01*
X152825517Y-88248232D01*
X152905924Y-88485097D01*
X152908025Y-88492939D01*
X152956826Y-88738275D01*
X152957886Y-88746323D01*
X152961467Y-88800944D01*
X152973372Y-88982568D01*
X152974381Y-88997952D01*
X152974514Y-89002009D01*
X152974514Y-117997949D01*
X152974381Y-118002005D01*
X152957889Y-118253653D01*
X152956829Y-118261702D01*
X152908031Y-118507037D01*
X152905929Y-118514879D01*
X152825525Y-118751749D01*
X152822418Y-118759249D01*
X152711784Y-118983597D01*
X152707725Y-118990628D01*
X152568755Y-119198615D01*
X152563812Y-119205056D01*
X152398883Y-119393124D01*
X152393143Y-119398865D01*
X152205078Y-119563796D01*
X152198636Y-119568739D01*
X151990653Y-119707710D01*
X151983622Y-119711769D01*
X151759272Y-119822409D01*
X151751771Y-119825516D01*
X151514906Y-119905922D01*
X151507064Y-119908023D01*
X151261727Y-119956826D01*
X151253678Y-119957886D01*
X151145298Y-119964990D01*
X151002465Y-119974353D01*
X150998417Y-119974486D01*
X122002050Y-119974486D01*
X121997995Y-119974353D01*
X121746342Y-119957861D01*
X121738292Y-119956801D01*
X121492970Y-119908003D01*
X121485128Y-119905902D01*
X121248251Y-119825496D01*
X121240755Y-119822391D01*
X121016408Y-119711755D01*
X121009379Y-119707697D01*
X120905386Y-119638211D01*
X120801390Y-119568724D01*
X120794958Y-119563788D01*
X120606884Y-119398852D01*
X120601145Y-119393113D01*
X120553128Y-119338360D01*
X120436209Y-119205039D01*
X120431277Y-119198611D01*
X120292301Y-118990618D01*
X120288246Y-118983596D01*
X120177604Y-118759236D01*
X120174505Y-118751754D01*
X120140800Y-118652460D01*
X120094097Y-118514871D01*
X120091996Y-118507029D01*
X120089528Y-118494625D01*
X120043196Y-118261694D01*
X120042138Y-118253657D01*
X120025647Y-118002004D01*
X120025581Y-118000001D01*
X120694546Y-118000001D01*
X120714378Y-118226686D01*
X120714380Y-118226697D01*
X120773272Y-118446488D01*
X120773275Y-118446497D01*
X120869445Y-118652732D01*
X120869446Y-118652734D01*
X120999968Y-118839141D01*
X121160872Y-119000045D01*
X121160875Y-119000047D01*
X121347280Y-119130568D01*
X121553518Y-119226739D01*
X121773322Y-119285635D01*
X121943230Y-119300500D01*
X122056798Y-119300500D01*
X122226706Y-119285635D01*
X122446510Y-119226739D01*
X122652748Y-119130568D01*
X122839153Y-119000047D01*
X123000061Y-118839139D01*
X123130582Y-118652734D01*
X123226753Y-118446496D01*
X123285649Y-118226692D01*
X123305482Y-118000001D01*
X149694532Y-118000001D01*
X149714364Y-118226686D01*
X149714366Y-118226697D01*
X149773258Y-118446488D01*
X149773261Y-118446497D01*
X149869431Y-118652732D01*
X149869432Y-118652734D01*
X149999954Y-118839141D01*
X150160858Y-119000045D01*
X150160861Y-119000047D01*
X150347266Y-119130568D01*
X150553504Y-119226739D01*
X150773308Y-119285635D01*
X150943216Y-119300500D01*
X151056784Y-119300500D01*
X151226692Y-119285635D01*
X151446496Y-119226739D01*
X151652734Y-119130568D01*
X151839139Y-119000047D01*
X152000047Y-118839139D01*
X152130568Y-118652734D01*
X152226739Y-118446496D01*
X152285635Y-118226692D01*
X152305468Y-118000000D01*
X152285635Y-117773308D01*
X152226739Y-117553504D01*
X152130568Y-117347266D01*
X152000047Y-117160861D01*
X152000045Y-117160858D01*
X151839141Y-116999954D01*
X151652734Y-116869432D01*
X151652732Y-116869431D01*
X151446497Y-116773261D01*
X151446488Y-116773258D01*
X151226697Y-116714366D01*
X151226687Y-116714364D01*
X151056784Y-116699500D01*
X150943216Y-116699500D01*
X150773312Y-116714364D01*
X150773302Y-116714366D01*
X150553511Y-116773258D01*
X150553502Y-116773261D01*
X150347267Y-116869431D01*
X150347265Y-116869432D01*
X150160858Y-116999954D01*
X149999954Y-117160858D01*
X149869432Y-117347265D01*
X149869431Y-117347267D01*
X149773261Y-117553502D01*
X149773258Y-117553511D01*
X149714366Y-117773302D01*
X149714364Y-117773313D01*
X149694532Y-117999998D01*
X149694532Y-118000001D01*
X123305482Y-118000001D01*
X123305482Y-118000000D01*
X123285649Y-117773308D01*
X123226753Y-117553504D01*
X123130582Y-117347266D01*
X123000061Y-117160861D01*
X123000059Y-117160858D01*
X122839155Y-116999954D01*
X122652748Y-116869432D01*
X122652746Y-116869431D01*
X122446511Y-116773261D01*
X122446502Y-116773258D01*
X122226711Y-116714366D01*
X122226701Y-116714364D01*
X122056798Y-116699500D01*
X121943230Y-116699500D01*
X121773326Y-116714364D01*
X121773316Y-116714366D01*
X121553525Y-116773258D01*
X121553516Y-116773261D01*
X121347281Y-116869431D01*
X121347279Y-116869432D01*
X121160872Y-116999954D01*
X120999968Y-117160858D01*
X120869446Y-117347265D01*
X120869445Y-117347267D01*
X120773275Y-117553502D01*
X120773272Y-117553511D01*
X120714380Y-117773302D01*
X120714378Y-117773313D01*
X120694546Y-117999998D01*
X120694546Y-118000001D01*
X120025581Y-118000001D01*
X120025514Y-117997949D01*
X120025514Y-108799987D01*
X121394332Y-108799987D01*
X121414969Y-108956746D01*
X121414970Y-108956748D01*
X121475478Y-109102827D01*
X121571732Y-109228268D01*
X121697173Y-109324522D01*
X121843252Y-109385030D01*
X121960653Y-109400486D01*
X121960660Y-109400486D01*
X122039368Y-109400486D01*
X122039375Y-109400486D01*
X122156776Y-109385030D01*
X122302855Y-109324522D01*
X122428296Y-109228268D01*
X122524550Y-109102827D01*
X122585058Y-108956748D01*
X122605696Y-108799986D01*
X122605239Y-108796517D01*
X122585058Y-108643225D01*
X122585058Y-108643224D01*
X122524550Y-108497145D01*
X122428296Y-108371704D01*
X122302855Y-108275450D01*
X122156776Y-108214942D01*
X122156774Y-108214941D01*
X122039384Y-108199487D01*
X122039381Y-108199486D01*
X122039375Y-108199486D01*
X121960653Y-108199486D01*
X121960647Y-108199486D01*
X121960643Y-108199487D01*
X121843253Y-108214941D01*
X121843251Y-108214942D01*
X121697174Y-108275449D01*
X121571732Y-108371704D01*
X121475477Y-108497146D01*
X121414970Y-108643223D01*
X121414969Y-108643225D01*
X121394332Y-108799984D01*
X121394332Y-108799987D01*
X120025514Y-108799987D01*
X120025514Y-106098654D01*
X120691500Y-106098654D01*
X120698011Y-106159202D01*
X120698011Y-106159204D01*
X120733793Y-106255135D01*
X120749111Y-106296204D01*
X120836739Y-106413261D01*
X120953796Y-106500889D01*
X121090799Y-106551989D01*
X121118050Y-106554918D01*
X121151345Y-106558499D01*
X121151362Y-106558500D01*
X122992500Y-106558500D01*
X123059539Y-106578185D01*
X123105294Y-106630989D01*
X123116500Y-106682500D01*
X123116500Y-108926728D01*
X123149581Y-109178013D01*
X123215183Y-109422841D01*
X123312173Y-109656996D01*
X123312178Y-109657007D01*
X123438899Y-109876492D01*
X123438910Y-109876508D01*
X123593196Y-110077579D01*
X123593202Y-110077586D01*
X123772413Y-110256797D01*
X123772419Y-110256802D01*
X123973500Y-110411096D01*
X123973507Y-110411100D01*
X124192992Y-110537821D01*
X124192997Y-110537823D01*
X124193000Y-110537825D01*
X124427163Y-110634818D01*
X124671983Y-110700418D01*
X124860449Y-110725229D01*
X124923271Y-110733500D01*
X124923272Y-110733500D01*
X129860729Y-110733500D01*
X129910985Y-110726883D01*
X130112017Y-110700418D01*
X130356837Y-110634818D01*
X130591000Y-110537825D01*
X130810500Y-110411096D01*
X131011581Y-110256802D01*
X131190802Y-110077581D01*
X131345096Y-109876500D01*
X131471825Y-109657000D01*
X131568818Y-109422837D01*
X131634418Y-109178017D01*
X131667500Y-108926728D01*
X131667500Y-108800000D01*
X131667500Y-108723079D01*
X131667499Y-105951743D01*
X131687184Y-105884705D01*
X131699349Y-105868772D01*
X131717631Y-105848466D01*
X131773040Y-105786930D01*
X131868527Y-105621542D01*
X131927542Y-105439914D01*
X131947504Y-105249986D01*
X131927542Y-105060058D01*
X131868527Y-104878430D01*
X131773040Y-104713042D01*
X131645253Y-104571120D01*
X131490752Y-104458868D01*
X131316288Y-104381192D01*
X131316286Y-104381191D01*
X131129487Y-104341486D01*
X130938513Y-104341486D01*
X130751714Y-104381191D01*
X130577246Y-104458869D01*
X130422745Y-104571121D01*
X130294959Y-104713043D01*
X130199473Y-104878429D01*
X130199470Y-104878436D01*
X130141792Y-105055951D01*
X130140458Y-105060058D01*
X130120496Y-105249986D01*
X130140458Y-105439914D01*
X130140459Y-105439917D01*
X130199470Y-105621535D01*
X130199473Y-105621542D01*
X130294960Y-105786930D01*
X130360822Y-105860077D01*
X130368649Y-105868770D01*
X130398879Y-105931761D01*
X130400499Y-105951742D01*
X130400499Y-105971416D01*
X130380814Y-106038455D01*
X130328010Y-106084210D01*
X130258852Y-106094154D01*
X130226065Y-106084696D01*
X130182289Y-106065206D01*
X130182286Y-106065205D01*
X129995487Y-106025500D01*
X129804513Y-106025500D01*
X129617714Y-106065205D01*
X129443246Y-106142883D01*
X129288745Y-106255135D01*
X129160959Y-106397057D01*
X129065473Y-106562443D01*
X129065470Y-106562450D01*
X129026464Y-106682500D01*
X129006458Y-106744072D01*
X128986496Y-106934000D01*
X129006458Y-107123928D01*
X129006459Y-107123931D01*
X129065470Y-107305549D01*
X129065473Y-107305556D01*
X129160960Y-107470944D01*
X129226822Y-107544091D01*
X129234649Y-107552784D01*
X129264879Y-107615775D01*
X129266499Y-107635756D01*
X129266499Y-108208500D01*
X129246814Y-108275539D01*
X129194010Y-108321294D01*
X129142499Y-108332500D01*
X127827504Y-108332500D01*
X127760465Y-108312815D01*
X127714710Y-108260011D01*
X127704766Y-108190853D01*
X127720117Y-108146500D01*
X127734527Y-108121542D01*
X127793542Y-107939914D01*
X127813504Y-107749986D01*
X127793542Y-107560058D01*
X127734527Y-107378430D01*
X127639040Y-107213042D01*
X127511253Y-107071120D01*
X127356752Y-106958868D01*
X127182288Y-106881192D01*
X127182286Y-106881191D01*
X126995487Y-106841486D01*
X126938766Y-106841486D01*
X126871727Y-106821801D01*
X126851085Y-106805167D01*
X126017334Y-105971416D01*
X125170526Y-105124607D01*
X125170484Y-105124559D01*
X125144822Y-105098899D01*
X125111335Y-105037577D01*
X125108500Y-105011215D01*
X125108500Y-103832500D01*
X125128185Y-103765461D01*
X125180989Y-103719706D01*
X125232500Y-103708500D01*
X125248638Y-103708500D01*
X125248654Y-103708499D01*
X125275692Y-103705591D01*
X125309201Y-103701989D01*
X125309205Y-103701987D01*
X125309207Y-103701987D01*
X125454514Y-103647790D01*
X125455599Y-103650700D01*
X125508805Y-103639108D01*
X125544786Y-103649669D01*
X125545488Y-103647790D01*
X125553795Y-103650888D01*
X125553796Y-103650889D01*
X125633499Y-103680617D01*
X125690793Y-103701987D01*
X125690799Y-103701989D01*
X125718050Y-103704918D01*
X125751345Y-103708499D01*
X125751362Y-103708500D01*
X126248638Y-103708500D01*
X126248654Y-103708499D01*
X126275692Y-103705591D01*
X126309201Y-103701989D01*
X126309205Y-103701987D01*
X126309207Y-103701987D01*
X126454514Y-103647790D01*
X126455599Y-103650700D01*
X126508805Y-103639108D01*
X126544784Y-103649672D01*
X126545486Y-103647790D01*
X126690792Y-103701987D01*
X126690795Y-103701987D01*
X126690799Y-103701989D01*
X126720270Y-103705157D01*
X126751345Y-103708499D01*
X126751362Y-103708500D01*
X127248638Y-103708500D01*
X127248654Y-103708499D01*
X127275692Y-103705591D01*
X127309201Y-103701989D01*
X127309205Y-103701987D01*
X127309207Y-103701987D01*
X127454514Y-103647790D01*
X127455599Y-103650700D01*
X127508805Y-103639108D01*
X127544786Y-103649669D01*
X127545488Y-103647790D01*
X127553795Y-103650888D01*
X127553796Y-103650889D01*
X127633499Y-103680617D01*
X127690793Y-103701987D01*
X127690799Y-103701989D01*
X127718050Y-103704918D01*
X127751345Y-103708499D01*
X127751362Y-103708500D01*
X128248638Y-103708500D01*
X128248654Y-103708499D01*
X128275692Y-103705591D01*
X128309201Y-103701989D01*
X128309205Y-103701987D01*
X128309207Y-103701987D01*
X128454514Y-103647790D01*
X128455599Y-103650700D01*
X128508805Y-103639108D01*
X128544784Y-103649672D01*
X128545486Y-103647790D01*
X128690792Y-103701987D01*
X128690795Y-103701987D01*
X128690799Y-103701989D01*
X128720270Y-103705157D01*
X128751345Y-103708499D01*
X128751362Y-103708500D01*
X129248638Y-103708500D01*
X129248654Y-103708499D01*
X129275692Y-103705591D01*
X129309201Y-103701989D01*
X129309205Y-103701987D01*
X129309207Y-103701987D01*
X129454514Y-103647790D01*
X129455599Y-103650700D01*
X129508805Y-103639108D01*
X129544786Y-103649669D01*
X129545488Y-103647790D01*
X129553795Y-103650888D01*
X129553796Y-103650889D01*
X129633499Y-103680617D01*
X129690793Y-103701987D01*
X129690799Y-103701989D01*
X129718050Y-103704918D01*
X129751345Y-103708499D01*
X129751362Y-103708500D01*
X130248638Y-103708500D01*
X130248654Y-103708499D01*
X130275692Y-103705591D01*
X130309201Y-103701989D01*
X130309205Y-103701987D01*
X130309207Y-103701987D01*
X130454514Y-103647790D01*
X130455599Y-103650700D01*
X130508805Y-103639108D01*
X130544784Y-103649672D01*
X130545486Y-103647790D01*
X130690792Y-103701987D01*
X130690795Y-103701987D01*
X130690799Y-103701989D01*
X130720270Y-103705157D01*
X130751345Y-103708499D01*
X130751362Y-103708500D01*
X131248638Y-103708500D01*
X131248654Y-103708499D01*
X131275692Y-103705591D01*
X131309201Y-103701989D01*
X131309205Y-103701987D01*
X131309207Y-103701987D01*
X131454514Y-103647790D01*
X131455599Y-103650700D01*
X131508805Y-103639108D01*
X131544786Y-103649669D01*
X131545488Y-103647790D01*
X131553795Y-103650888D01*
X131553796Y-103650889D01*
X131633499Y-103680617D01*
X131690793Y-103701987D01*
X131690799Y-103701989D01*
X131718050Y-103704918D01*
X131751345Y-103708499D01*
X131751362Y-103708500D01*
X132248638Y-103708500D01*
X132248654Y-103708499D01*
X132275692Y-103705591D01*
X132309201Y-103701989D01*
X132309205Y-103701987D01*
X132309207Y-103701987D01*
X132454514Y-103647790D01*
X132455599Y-103650700D01*
X132508805Y-103639108D01*
X132544784Y-103649672D01*
X132545486Y-103647790D01*
X132690792Y-103701987D01*
X132690795Y-103701987D01*
X132690799Y-103701989D01*
X132720270Y-103705157D01*
X132751345Y-103708499D01*
X132751362Y-103708500D01*
X133248638Y-103708500D01*
X133248654Y-103708499D01*
X133275692Y-103705591D01*
X133309201Y-103701989D01*
X133309205Y-103701987D01*
X133309207Y-103701987D01*
X133454514Y-103647790D01*
X133455599Y-103650700D01*
X133508805Y-103639108D01*
X133544786Y-103649669D01*
X133545488Y-103647790D01*
X133553795Y-103650888D01*
X133553796Y-103650889D01*
X133633499Y-103680617D01*
X133690793Y-103701987D01*
X133690799Y-103701989D01*
X133718050Y-103704918D01*
X133751345Y-103708499D01*
X133751362Y-103708500D01*
X134248638Y-103708500D01*
X134248654Y-103708499D01*
X134275692Y-103705591D01*
X134309201Y-103701989D01*
X134309205Y-103701987D01*
X134309207Y-103701987D01*
X134454514Y-103647790D01*
X134455599Y-103650700D01*
X134508805Y-103639108D01*
X134544784Y-103649672D01*
X134545486Y-103647790D01*
X134690792Y-103701987D01*
X134690795Y-103701987D01*
X134690799Y-103701989D01*
X134720270Y-103705157D01*
X134751345Y-103708499D01*
X134751362Y-103708500D01*
X135248638Y-103708500D01*
X135248654Y-103708499D01*
X135275692Y-103705591D01*
X135309201Y-103701989D01*
X135309205Y-103701987D01*
X135309207Y-103701987D01*
X135454514Y-103647790D01*
X135455599Y-103650700D01*
X135508805Y-103639108D01*
X135544784Y-103649672D01*
X135545486Y-103647790D01*
X135690792Y-103701987D01*
X135690795Y-103701987D01*
X135690799Y-103701989D01*
X135720270Y-103705157D01*
X135751345Y-103708499D01*
X135751362Y-103708500D01*
X136033773Y-103708500D01*
X136100812Y-103728185D01*
X136146567Y-103780989D01*
X136156511Y-103850147D01*
X136151704Y-103870818D01*
X136106459Y-104010068D01*
X136106458Y-104010072D01*
X136086496Y-104200000D01*
X136106458Y-104389928D01*
X136106459Y-104389931D01*
X136165470Y-104571549D01*
X136165473Y-104571556D01*
X136260960Y-104736944D01*
X136363290Y-104850593D01*
X136388353Y-104878429D01*
X136388747Y-104878866D01*
X136543248Y-104991118D01*
X136717712Y-105068794D01*
X136904513Y-105108500D01*
X137095487Y-105108500D01*
X137282288Y-105068794D01*
X137449567Y-104994316D01*
X137518815Y-104985033D01*
X137550429Y-104994315D01*
X137717712Y-105068794D01*
X137904513Y-105108500D01*
X138095487Y-105108500D01*
X138282288Y-105068794D01*
X138449567Y-104994316D01*
X138518815Y-104985033D01*
X138550429Y-104994315D01*
X138717712Y-105068794D01*
X138904513Y-105108500D01*
X139095487Y-105108500D01*
X139282288Y-105068794D01*
X139449567Y-104994316D01*
X139518815Y-104985033D01*
X139550429Y-104994315D01*
X139717712Y-105068794D01*
X139904513Y-105108500D01*
X140095487Y-105108500D01*
X140216719Y-105082731D01*
X140286386Y-105088047D01*
X140342120Y-105130184D01*
X140366225Y-105195763D01*
X140366500Y-105204021D01*
X140366500Y-107148241D01*
X140346815Y-107215280D01*
X140334650Y-107231213D01*
X140260963Y-107313050D01*
X140260958Y-107313057D01*
X140165473Y-107478443D01*
X140165470Y-107478450D01*
X140106459Y-107660068D01*
X140106458Y-107660072D01*
X140086496Y-107850000D01*
X140106458Y-108039928D01*
X140106459Y-108039931D01*
X140165470Y-108221549D01*
X140165473Y-108221556D01*
X140260960Y-108386944D01*
X140388747Y-108528866D01*
X140543248Y-108641118D01*
X140717712Y-108718794D01*
X140904513Y-108758500D01*
X140967152Y-108758500D01*
X141034191Y-108778185D01*
X141079946Y-108830989D01*
X141090472Y-108895460D01*
X141086496Y-108933300D01*
X141106458Y-109123228D01*
X141106459Y-109123231D01*
X141165470Y-109304849D01*
X141165473Y-109304856D01*
X141260960Y-109470244D01*
X141388747Y-109612166D01*
X141543248Y-109724418D01*
X141717712Y-109802094D01*
X141904513Y-109841800D01*
X141967163Y-109841800D01*
X142034202Y-109861485D01*
X142079957Y-109914289D01*
X142090483Y-109978759D01*
X142086496Y-110016700D01*
X142106458Y-110206628D01*
X142106459Y-110206631D01*
X142165470Y-110388249D01*
X142165473Y-110388256D01*
X142260960Y-110553644D01*
X142388747Y-110695566D01*
X142543248Y-110807818D01*
X142717712Y-110885494D01*
X142904513Y-110925200D01*
X142978535Y-110925200D01*
X143045574Y-110944885D01*
X143091329Y-110997689D01*
X143101856Y-111062161D01*
X143086496Y-111208300D01*
X143094856Y-111287839D01*
X143082286Y-111356569D01*
X143034554Y-111407592D01*
X142971535Y-111424800D01*
X142904513Y-111424800D01*
X142717714Y-111464505D01*
X142543246Y-111542183D01*
X142388745Y-111654435D01*
X142260959Y-111796357D01*
X142165473Y-111961743D01*
X142165470Y-111961750D01*
X142106459Y-112143368D01*
X142106458Y-112143372D01*
X142086496Y-112333300D01*
X142090483Y-112371240D01*
X142077915Y-112439968D01*
X142030183Y-112490992D01*
X141967163Y-112508200D01*
X141904513Y-112508200D01*
X141717714Y-112547905D01*
X141543246Y-112625583D01*
X141388745Y-112737835D01*
X141260959Y-112879757D01*
X141165473Y-113045143D01*
X141165470Y-113045150D01*
X141106459Y-113226768D01*
X141106458Y-113226772D01*
X141091042Y-113373445D01*
X141086496Y-113416700D01*
X141090473Y-113454539D01*
X141077903Y-113523269D01*
X141030171Y-113574293D01*
X140967152Y-113591500D01*
X140904513Y-113591500D01*
X140717714Y-113631205D01*
X140543246Y-113708883D01*
X140388745Y-113821135D01*
X140260959Y-113963057D01*
X140165473Y-114128443D01*
X140165470Y-114128450D01*
X140106459Y-114310068D01*
X140106458Y-114310072D01*
X140086496Y-114500000D01*
X140106458Y-114689928D01*
X140106459Y-114689931D01*
X140165470Y-114871549D01*
X140165473Y-114871556D01*
X140260960Y-115036944D01*
X140319271Y-115101705D01*
X140387719Y-115177725D01*
X140388747Y-115178866D01*
X140543248Y-115291118D01*
X140717712Y-115368794D01*
X140904513Y-115408500D01*
X141095487Y-115408500D01*
X141282288Y-115368794D01*
X141456752Y-115291118D01*
X141611253Y-115178866D01*
X141612280Y-115177724D01*
X141613040Y-115177256D01*
X141616083Y-115174517D01*
X141616584Y-115175073D01*
X141671768Y-115141078D01*
X141704428Y-115136700D01*
X144178499Y-115136700D01*
X144178502Y-115136700D01*
X144533788Y-115101707D01*
X144707099Y-115067233D01*
X144883912Y-115032064D01*
X144883923Y-115032061D01*
X144883923Y-115032060D01*
X144883933Y-115032059D01*
X145225566Y-114928426D01*
X145555395Y-114791806D01*
X145870245Y-114623515D01*
X146167084Y-114425174D01*
X146443052Y-114198693D01*
X146695493Y-113946252D01*
X146921974Y-113670284D01*
X147120315Y-113373445D01*
X147288606Y-113058595D01*
X147425226Y-112728766D01*
X147528859Y-112387133D01*
X147528860Y-112387123D01*
X147528864Y-112387112D01*
X147577346Y-112143372D01*
X147598507Y-112036988D01*
X147633500Y-111681702D01*
X147633500Y-111503200D01*
X147633500Y-111426279D01*
X147633500Y-106098654D01*
X149291500Y-106098654D01*
X149298011Y-106159202D01*
X149298011Y-106159204D01*
X149333793Y-106255135D01*
X149349111Y-106296204D01*
X149436739Y-106413261D01*
X149553796Y-106500889D01*
X149690799Y-106551989D01*
X149718050Y-106554918D01*
X149751345Y-106558499D01*
X149751362Y-106558500D01*
X151848638Y-106558500D01*
X151848654Y-106558499D01*
X151875692Y-106555591D01*
X151909201Y-106551989D01*
X152046204Y-106500889D01*
X152163261Y-106413261D01*
X152250889Y-106296204D01*
X152301989Y-106159201D01*
X152305591Y-106125692D01*
X152308499Y-106098654D01*
X152308499Y-106098647D01*
X152308500Y-106098638D01*
X152308500Y-104701362D01*
X152308499Y-104701352D01*
X152308499Y-104701345D01*
X152305157Y-104670270D01*
X152301989Y-104640799D01*
X152250889Y-104503796D01*
X152163261Y-104386739D01*
X152046204Y-104299111D01*
X152046204Y-104299110D01*
X151909203Y-104248011D01*
X151848654Y-104241500D01*
X151848638Y-104241500D01*
X149751362Y-104241500D01*
X149751345Y-104241500D01*
X149690797Y-104248011D01*
X149690795Y-104248011D01*
X149553795Y-104299111D01*
X149436739Y-104386739D01*
X149349111Y-104503795D01*
X149298011Y-104640795D01*
X149298011Y-104640797D01*
X149291500Y-104701345D01*
X149291500Y-106098654D01*
X147633500Y-106098654D01*
X147633500Y-103832499D01*
X147653185Y-103765461D01*
X147705989Y-103719706D01*
X147757500Y-103708500D01*
X148248638Y-103708500D01*
X148248654Y-103708499D01*
X148275692Y-103705591D01*
X148309201Y-103701989D01*
X148309207Y-103701987D01*
X148323768Y-103696555D01*
X148446204Y-103650889D01*
X148563261Y-103563261D01*
X148650889Y-103446204D01*
X148701989Y-103309201D01*
X148705591Y-103275692D01*
X148708499Y-103248654D01*
X148708500Y-103248637D01*
X148708500Y-102151362D01*
X148708499Y-102151345D01*
X148705157Y-102120270D01*
X148701989Y-102090799D01*
X148650889Y-101953796D01*
X148563261Y-101836739D01*
X148446204Y-101749111D01*
X148446203Y-101749110D01*
X148309203Y-101698011D01*
X148248654Y-101691500D01*
X148248638Y-101691500D01*
X147751362Y-101691500D01*
X147751345Y-101691500D01*
X147690797Y-101698011D01*
X147690795Y-101698011D01*
X147545488Y-101752210D01*
X147544405Y-101749308D01*
X147491126Y-101760886D01*
X147455209Y-101750340D01*
X147454512Y-101752210D01*
X147446204Y-101749111D01*
X147418642Y-101738830D01*
X147309203Y-101698011D01*
X147248654Y-101691500D01*
X147248638Y-101691500D01*
X146751362Y-101691500D01*
X146751345Y-101691500D01*
X146690797Y-101698011D01*
X146690795Y-101698011D01*
X146545488Y-101752210D01*
X146544405Y-101749308D01*
X146491126Y-101760886D01*
X146455209Y-101750340D01*
X146454512Y-101752210D01*
X146446204Y-101749111D01*
X146418642Y-101738830D01*
X146309203Y-101698011D01*
X146248654Y-101691500D01*
X146248638Y-101691500D01*
X145751362Y-101691500D01*
X145751345Y-101691500D01*
X145690797Y-101698011D01*
X145690795Y-101698011D01*
X145545488Y-101752210D01*
X145544405Y-101749308D01*
X145491126Y-101760886D01*
X145455209Y-101750340D01*
X145454512Y-101752210D01*
X145446204Y-101749111D01*
X145418642Y-101738830D01*
X145309203Y-101698011D01*
X145248654Y-101691500D01*
X145248638Y-101691500D01*
X144751362Y-101691500D01*
X144751345Y-101691500D01*
X144690797Y-101698011D01*
X144690795Y-101698011D01*
X144545488Y-101752210D01*
X144544405Y-101749308D01*
X144491126Y-101760886D01*
X144455209Y-101750340D01*
X144454512Y-101752210D01*
X144446204Y-101749111D01*
X144418642Y-101738830D01*
X144309203Y-101698011D01*
X144248654Y-101691500D01*
X144248638Y-101691500D01*
X143751362Y-101691500D01*
X143751345Y-101691500D01*
X143690797Y-101698011D01*
X143690795Y-101698011D01*
X143545488Y-101752210D01*
X143544405Y-101749308D01*
X143491126Y-101760886D01*
X143455209Y-101750340D01*
X143454512Y-101752210D01*
X143446204Y-101749111D01*
X143418642Y-101738830D01*
X143309203Y-101698011D01*
X143248654Y-101691500D01*
X143248638Y-101691500D01*
X142751362Y-101691500D01*
X142751345Y-101691500D01*
X142690797Y-101698011D01*
X142690795Y-101698011D01*
X142545488Y-101752210D01*
X142544405Y-101749308D01*
X142491126Y-101760886D01*
X142455209Y-101750340D01*
X142454512Y-101752210D01*
X142446204Y-101749111D01*
X142418642Y-101738830D01*
X142309203Y-101698011D01*
X142248654Y-101691500D01*
X142248638Y-101691500D01*
X141751362Y-101691500D01*
X141751345Y-101691500D01*
X141690797Y-101698011D01*
X141690795Y-101698011D01*
X141545488Y-101752210D01*
X141544405Y-101749308D01*
X141491126Y-101760886D01*
X141455209Y-101750340D01*
X141454512Y-101752210D01*
X141446204Y-101749111D01*
X141418642Y-101738830D01*
X141309203Y-101698011D01*
X141248654Y-101691500D01*
X141248638Y-101691500D01*
X140751362Y-101691500D01*
X140751345Y-101691500D01*
X140690797Y-101698011D01*
X140690795Y-101698011D01*
X140545488Y-101752210D01*
X140544405Y-101749308D01*
X140491126Y-101760886D01*
X140455209Y-101750340D01*
X140454512Y-101752210D01*
X140446204Y-101749111D01*
X140418642Y-101738830D01*
X140309203Y-101698011D01*
X140248654Y-101691500D01*
X140248638Y-101691500D01*
X139751362Y-101691500D01*
X139751345Y-101691500D01*
X139690797Y-101698011D01*
X139690795Y-101698011D01*
X139545488Y-101752210D01*
X139544405Y-101749308D01*
X139491126Y-101760886D01*
X139455209Y-101750340D01*
X139454512Y-101752210D01*
X139446204Y-101749111D01*
X139418642Y-101738830D01*
X139309203Y-101698011D01*
X139248654Y-101691500D01*
X139248638Y-101691500D01*
X138751362Y-101691500D01*
X138751345Y-101691500D01*
X138690797Y-101698011D01*
X138690795Y-101698011D01*
X138545488Y-101752210D01*
X138544405Y-101749308D01*
X138491126Y-101760886D01*
X138455209Y-101750340D01*
X138454512Y-101752210D01*
X138446204Y-101749111D01*
X138418642Y-101738830D01*
X138309203Y-101698011D01*
X138248654Y-101691500D01*
X138248638Y-101691500D01*
X137751362Y-101691500D01*
X137751345Y-101691500D01*
X137690797Y-101698011D01*
X137690795Y-101698011D01*
X137545488Y-101752210D01*
X137544405Y-101749308D01*
X137491126Y-101760886D01*
X137455209Y-101750340D01*
X137454512Y-101752210D01*
X137446204Y-101749111D01*
X137418642Y-101738830D01*
X137309203Y-101698011D01*
X137248654Y-101691500D01*
X137248638Y-101691500D01*
X136757500Y-101691500D01*
X136690461Y-101671815D01*
X136644706Y-101619011D01*
X136633500Y-101567500D01*
X136633500Y-101065256D01*
X136653185Y-100998217D01*
X136665346Y-100982288D01*
X136739040Y-100900444D01*
X136834527Y-100735056D01*
X136893542Y-100553428D01*
X136913504Y-100363500D01*
X136893542Y-100173572D01*
X136834527Y-99991944D01*
X136739040Y-99826556D01*
X136611253Y-99684634D01*
X136456752Y-99572382D01*
X136282288Y-99494706D01*
X136282286Y-99494705D01*
X136095487Y-99455000D01*
X135904513Y-99455000D01*
X135717713Y-99494705D01*
X135717710Y-99494706D01*
X135550434Y-99569181D01*
X135481184Y-99578465D01*
X135449566Y-99569181D01*
X135282289Y-99494706D01*
X135282286Y-99494705D01*
X135095487Y-99455000D01*
X134904513Y-99455000D01*
X134717714Y-99494705D01*
X134554366Y-99567432D01*
X134485116Y-99576716D01*
X134453496Y-99567432D01*
X134367036Y-99528938D01*
X134282288Y-99491206D01*
X134282286Y-99491205D01*
X134095487Y-99451500D01*
X133957454Y-99451500D01*
X133890415Y-99431815D01*
X133844660Y-99379011D01*
X133834716Y-99309853D01*
X133839523Y-99289182D01*
X133860353Y-99225071D01*
X133893542Y-99122928D01*
X133913504Y-98933000D01*
X133893542Y-98743072D01*
X133834527Y-98561444D01*
X133739040Y-98396056D01*
X133611253Y-98254134D01*
X133456752Y-98141882D01*
X133282288Y-98064206D01*
X133282286Y-98064205D01*
X133095487Y-98024500D01*
X132904513Y-98024500D01*
X132717714Y-98064205D01*
X132543246Y-98141883D01*
X132388745Y-98254135D01*
X132260959Y-98396057D01*
X132165473Y-98561443D01*
X132165470Y-98561450D01*
X132143760Y-98628268D01*
X132106458Y-98743072D01*
X132086496Y-98933000D01*
X132106458Y-99122928D01*
X132106459Y-99122931D01*
X132160477Y-99289182D01*
X132162472Y-99359023D01*
X132126392Y-99418856D01*
X132063691Y-99449684D01*
X132042546Y-99451500D01*
X131904513Y-99451500D01*
X131758281Y-99482582D01*
X131688613Y-99477266D01*
X131632880Y-99435129D01*
X131608775Y-99369549D01*
X131608500Y-99361292D01*
X131608500Y-96854522D01*
X131628185Y-96787483D01*
X131640350Y-96771550D01*
X131649745Y-96761116D01*
X131696617Y-96709059D01*
X131756102Y-96672411D01*
X131825959Y-96673741D01*
X131876447Y-96704351D01*
X132362662Y-97190566D01*
X132362710Y-97190620D01*
X132383347Y-97211256D01*
X132383392Y-97211339D01*
X132491096Y-97319034D01*
X132491098Y-97319035D01*
X132491100Y-97319037D01*
X132654552Y-97437780D01*
X132834569Y-97529492D01*
X132834571Y-97529492D01*
X132834574Y-97529494D01*
X132904970Y-97552362D01*
X133026715Y-97591913D01*
X133226261Y-97623506D01*
X133327277Y-97623500D01*
X133895017Y-97623500D01*
X133962056Y-97643185D01*
X134007811Y-97695989D01*
X134016307Y-97721718D01*
X134016457Y-97722427D01*
X134075470Y-97904049D01*
X134075473Y-97904056D01*
X134170960Y-98069444D01*
X134273290Y-98183093D01*
X134288498Y-98199984D01*
X134298747Y-98211366D01*
X134453248Y-98323618D01*
X134627712Y-98401294D01*
X134814513Y-98441000D01*
X135005487Y-98441000D01*
X135192288Y-98401294D01*
X135366752Y-98323618D01*
X135521253Y-98211366D01*
X135649040Y-98069444D01*
X135744527Y-97904056D01*
X135803542Y-97722428D01*
X135823504Y-97532500D01*
X135803542Y-97342572D01*
X135744527Y-97160944D01*
X135649040Y-96995556D01*
X135521253Y-96853634D01*
X135366752Y-96741382D01*
X135359412Y-96738114D01*
X135306176Y-96692862D01*
X135285857Y-96626013D01*
X135293669Y-96581505D01*
X135301989Y-96559201D01*
X135304002Y-96540469D01*
X135308499Y-96498654D01*
X135308500Y-96498637D01*
X135308500Y-95501362D01*
X135308499Y-95501345D01*
X135305157Y-95470270D01*
X135301989Y-95440799D01*
X135301576Y-95439693D01*
X135279522Y-95380564D01*
X135250889Y-95303796D01*
X135163261Y-95186739D01*
X135046204Y-95099111D01*
X134982730Y-95075436D01*
X134909203Y-95048011D01*
X134848654Y-95041500D01*
X134848638Y-95041500D01*
X134088766Y-95041500D01*
X134021727Y-95021815D01*
X134001085Y-95005181D01*
X133780329Y-94784425D01*
X133548141Y-94552236D01*
X133548105Y-94552195D01*
X133527492Y-94531583D01*
X133527447Y-94531501D01*
X133491171Y-94495227D01*
X133491172Y-94495227D01*
X133401559Y-94405619D01*
X133200473Y-94251332D01*
X132980970Y-94124610D01*
X132980958Y-94124605D01*
X132746810Y-94027625D01*
X132746806Y-94027624D01*
X132746804Y-94027623D01*
X132501983Y-93962030D01*
X132501979Y-93962029D01*
X132501974Y-93962028D01*
X132250696Y-93928952D01*
X132250694Y-93928952D01*
X132123966Y-93928955D01*
X126910646Y-93928955D01*
X126910614Y-93928953D01*
X126881357Y-93928953D01*
X126881248Y-93928921D01*
X126703233Y-93928923D01*
X126451939Y-93962013D01*
X126207119Y-94027619D01*
X125972954Y-94124622D01*
X125972951Y-94124623D01*
X125753450Y-94251363D01*
X125552378Y-94405663D01*
X125473966Y-94484081D01*
X123737193Y-96220853D01*
X123737194Y-96220853D01*
X123737192Y-96220855D01*
X123719135Y-96238911D01*
X123719068Y-96238948D01*
X123593174Y-96364847D01*
X123438882Y-96565932D01*
X123438876Y-96565941D01*
X123312162Y-96785425D01*
X123312154Y-96785441D01*
X123215168Y-97019603D01*
X123215166Y-97019610D01*
X123149574Y-97264420D01*
X123116497Y-97515717D01*
X123116497Y-97515724D01*
X123116500Y-97623496D01*
X123116500Y-104117500D01*
X123096815Y-104184539D01*
X123044011Y-104230294D01*
X122992500Y-104241500D01*
X121151345Y-104241500D01*
X121090797Y-104248011D01*
X121090795Y-104248011D01*
X120953795Y-104299111D01*
X120836739Y-104386739D01*
X120749111Y-104503795D01*
X120698011Y-104640795D01*
X120698011Y-104640797D01*
X120691500Y-104701345D01*
X120691500Y-106098654D01*
X120025514Y-106098654D01*
X120025514Y-98199987D01*
X121394332Y-98199987D01*
X121414969Y-98356746D01*
X121414970Y-98356748D01*
X121475478Y-98502827D01*
X121571732Y-98628268D01*
X121697173Y-98724522D01*
X121843252Y-98785030D01*
X121960653Y-98800486D01*
X121960660Y-98800486D01*
X122039368Y-98800486D01*
X122039375Y-98800486D01*
X122156776Y-98785030D01*
X122302855Y-98724522D01*
X122428296Y-98628268D01*
X122524550Y-98502827D01*
X122585058Y-98356748D01*
X122605696Y-98199986D01*
X122585058Y-98043224D01*
X122524550Y-97897145D01*
X122428296Y-97771704D01*
X122302855Y-97675450D01*
X122156776Y-97614942D01*
X122156774Y-97614941D01*
X122039384Y-97599487D01*
X122039381Y-97599486D01*
X122039375Y-97599486D01*
X121960653Y-97599486D01*
X121960647Y-97599486D01*
X121960643Y-97599487D01*
X121843253Y-97614941D01*
X121843251Y-97614942D01*
X121697174Y-97675449D01*
X121571732Y-97771704D01*
X121475477Y-97897146D01*
X121414970Y-98043223D01*
X121414969Y-98043225D01*
X121394332Y-98199984D01*
X121394332Y-98199987D01*
X120025514Y-98199987D01*
X120025514Y-92950000D01*
X132800000Y-92950000D01*
X132800000Y-93197844D01*
X132806401Y-93257372D01*
X132806403Y-93257379D01*
X132856645Y-93392086D01*
X132856649Y-93392093D01*
X132942809Y-93507187D01*
X132942812Y-93507190D01*
X133057906Y-93593350D01*
X133057913Y-93593354D01*
X133192620Y-93643596D01*
X133192627Y-93643598D01*
X133252155Y-93649999D01*
X133252172Y-93650000D01*
X133800000Y-93650000D01*
X133800000Y-92950000D01*
X134300000Y-92950000D01*
X134300000Y-93650000D01*
X134847828Y-93650000D01*
X134847844Y-93649999D01*
X134907372Y-93643598D01*
X134907379Y-93643596D01*
X135042086Y-93593354D01*
X135042093Y-93593350D01*
X135157187Y-93507190D01*
X135157190Y-93507187D01*
X135243350Y-93392093D01*
X135243354Y-93392086D01*
X135293596Y-93257379D01*
X135293598Y-93257372D01*
X135299999Y-93197844D01*
X135300000Y-93197827D01*
X135300000Y-92950000D01*
X134300000Y-92950000D01*
X133800000Y-92950000D01*
X132800000Y-92950000D01*
X120025514Y-92950000D01*
X120025514Y-92450000D01*
X132800000Y-92450000D01*
X133800000Y-92450000D01*
X133800000Y-91750000D01*
X134300000Y-91750000D01*
X134300000Y-92450000D01*
X135300000Y-92450000D01*
X135300000Y-92202172D01*
X135299999Y-92202155D01*
X135293598Y-92142627D01*
X135293596Y-92142620D01*
X135243354Y-92007913D01*
X135243350Y-92007906D01*
X135157190Y-91892812D01*
X135157187Y-91892809D01*
X135042093Y-91806649D01*
X135042086Y-91806645D01*
X134907379Y-91756403D01*
X134907372Y-91756401D01*
X134847844Y-91750000D01*
X134300000Y-91750000D01*
X133800000Y-91750000D01*
X133252155Y-91750000D01*
X133192627Y-91756401D01*
X133192620Y-91756403D01*
X133057913Y-91806645D01*
X133057906Y-91806649D01*
X132942812Y-91892809D01*
X132942809Y-91892812D01*
X132856649Y-92007906D01*
X132856645Y-92007913D01*
X132806403Y-92142620D01*
X132806401Y-92142627D01*
X132800000Y-92202155D01*
X132800000Y-92450000D01*
X120025514Y-92450000D01*
X120025514Y-89002010D01*
X120025580Y-88999987D01*
X120694546Y-88999987D01*
X120714378Y-89226672D01*
X120714380Y-89226683D01*
X120773272Y-89446474D01*
X120773275Y-89446483D01*
X120869445Y-89652718D01*
X120869446Y-89652720D01*
X120999968Y-89839127D01*
X121160872Y-90000031D01*
X121160875Y-90000033D01*
X121347280Y-90130554D01*
X121553518Y-90226725D01*
X121773322Y-90285621D01*
X121943230Y-90300486D01*
X122056798Y-90300486D01*
X122226706Y-90285621D01*
X122446510Y-90226725D01*
X122652748Y-90130554D01*
X122839153Y-90000033D01*
X123000061Y-89839125D01*
X123130582Y-89652720D01*
X123226753Y-89446482D01*
X123285649Y-89226678D01*
X123290389Y-89172500D01*
X132416013Y-89172500D01*
X132435975Y-89362428D01*
X132435976Y-89362431D01*
X132494987Y-89544049D01*
X132494990Y-89544056D01*
X132590477Y-89709444D01*
X132681359Y-89810379D01*
X132716730Y-89849663D01*
X132718264Y-89851366D01*
X132872765Y-89963618D01*
X133047229Y-90041294D01*
X133234030Y-90081000D01*
X133425004Y-90081000D01*
X133611805Y-90041294D01*
X133786269Y-89963618D01*
X133940770Y-89851366D01*
X133944676Y-89847027D01*
X134004163Y-89810379D01*
X134036826Y-89806000D01*
X135123079Y-89806000D01*
X135196517Y-89806000D01*
X135203458Y-89806389D01*
X135334427Y-89821146D01*
X135361492Y-89827323D01*
X135475999Y-89867390D01*
X135501011Y-89879436D01*
X135603728Y-89943977D01*
X135625436Y-89961289D01*
X135711210Y-90047063D01*
X135728523Y-90068772D01*
X135793062Y-90171485D01*
X135805110Y-90196503D01*
X135845175Y-90311005D01*
X135851353Y-90338074D01*
X135857623Y-90393719D01*
X135866110Y-90469043D01*
X135866500Y-90475982D01*
X135866500Y-95356289D01*
X135866499Y-95356311D01*
X135866499Y-95385156D01*
X135866484Y-95385207D01*
X135866486Y-95563255D01*
X135866487Y-95563267D01*
X135899573Y-95814543D01*
X135899576Y-95814559D01*
X135965174Y-96059363D01*
X135965178Y-96059373D01*
X136062167Y-96293518D01*
X136062172Y-96293526D01*
X136062174Y-96293531D01*
X136188905Y-96513030D01*
X136343203Y-96714109D01*
X136390213Y-96761117D01*
X136414521Y-96785425D01*
X136415372Y-96786276D01*
X136415374Y-96786279D01*
X136432814Y-96803718D01*
X136432814Y-96803719D01*
X136453096Y-96824000D01*
X137653379Y-98024284D01*
X137686864Y-98085607D01*
X137689018Y-98098999D01*
X137706458Y-98264928D01*
X137706459Y-98264931D01*
X137765470Y-98446549D01*
X137765473Y-98446556D01*
X137860960Y-98611944D01*
X137988747Y-98753866D01*
X138143248Y-98866118D01*
X138317712Y-98943794D01*
X138504513Y-98983500D01*
X138695487Y-98983500D01*
X138882288Y-98943794D01*
X139056752Y-98866118D01*
X139211253Y-98753866D01*
X139339040Y-98611944D01*
X139434527Y-98446556D01*
X139493542Y-98264928D01*
X139513504Y-98075000D01*
X139493542Y-97885072D01*
X139434527Y-97703444D01*
X139339040Y-97538056D01*
X139211253Y-97396134D01*
X139056752Y-97283882D01*
X138882288Y-97206206D01*
X138882286Y-97206205D01*
X138882287Y-97206205D01*
X138870922Y-97203790D01*
X138809441Y-97170597D01*
X138775665Y-97109434D01*
X138780317Y-97039719D01*
X138821922Y-96983587D01*
X138887270Y-96958859D01*
X138896704Y-96958500D01*
X139748638Y-96958500D01*
X139748654Y-96958499D01*
X139775692Y-96955591D01*
X139809201Y-96951989D01*
X139946204Y-96900889D01*
X140063261Y-96813261D01*
X140150889Y-96696204D01*
X140159267Y-96673741D01*
X140162839Y-96664166D01*
X140204710Y-96608232D01*
X140270175Y-96583816D01*
X140279020Y-96583500D01*
X142436729Y-96583500D01*
X142486985Y-96576883D01*
X142688017Y-96550418D01*
X142932837Y-96484818D01*
X143167000Y-96387825D01*
X143386500Y-96261096D01*
X143587581Y-96106802D01*
X143766802Y-95927581D01*
X143921096Y-95726500D01*
X144047825Y-95507000D01*
X144144818Y-95272837D01*
X144210418Y-95028017D01*
X144243500Y-94776728D01*
X144243500Y-94650000D01*
X144243500Y-94573079D01*
X144243500Y-94573078D01*
X144243500Y-93771755D01*
X144263185Y-93704717D01*
X144275346Y-93688788D01*
X144349040Y-93606944D01*
X144444527Y-93441556D01*
X144503542Y-93259928D01*
X144523504Y-93070000D01*
X144503542Y-92880072D01*
X144444527Y-92698444D01*
X144349040Y-92533056D01*
X144221253Y-92391134D01*
X144066752Y-92278882D01*
X143892288Y-92201206D01*
X143892286Y-92201205D01*
X143705487Y-92161500D01*
X143514513Y-92161500D01*
X143327714Y-92201205D01*
X143153246Y-92278883D01*
X142998745Y-92391135D01*
X142870959Y-92533057D01*
X142775473Y-92698443D01*
X142775470Y-92698450D01*
X142716459Y-92880068D01*
X142716458Y-92880072D01*
X142696496Y-93070000D01*
X142716458Y-93259928D01*
X142716459Y-93259931D01*
X142775470Y-93441549D01*
X142775473Y-93441556D01*
X142867463Y-93600888D01*
X142870960Y-93606944D01*
X142944649Y-93688784D01*
X142974880Y-93751775D01*
X142976500Y-93771756D01*
X142976500Y-94646517D01*
X142976110Y-94653465D01*
X142961353Y-94784425D01*
X142955175Y-94811494D01*
X142915110Y-94925996D01*
X142903062Y-94951014D01*
X142838523Y-95053727D01*
X142821210Y-95075436D01*
X142735436Y-95161210D01*
X142713727Y-95178523D01*
X142611014Y-95243062D01*
X142585996Y-95255110D01*
X142471494Y-95295175D01*
X142444425Y-95301353D01*
X142372933Y-95309408D01*
X142313457Y-95316110D01*
X142306517Y-95316500D01*
X140222469Y-95316500D01*
X140155430Y-95296815D01*
X140123202Y-95266811D01*
X140110989Y-95250496D01*
X140063261Y-95186739D01*
X139946204Y-95099111D01*
X139882730Y-95075436D01*
X139809203Y-95048011D01*
X139748654Y-95041500D01*
X139748638Y-95041500D01*
X138151362Y-95041500D01*
X138151345Y-95041500D01*
X138090797Y-95048011D01*
X138090795Y-95048011D01*
X137953795Y-95099111D01*
X137836739Y-95186739D01*
X137749111Y-95303795D01*
X137698011Y-95440795D01*
X137698011Y-95440797D01*
X137691500Y-95501345D01*
X137691500Y-95971233D01*
X137671815Y-96038272D01*
X137619011Y-96084027D01*
X137549853Y-96093971D01*
X137486297Y-96064946D01*
X137479819Y-96058914D01*
X137390173Y-95969268D01*
X137390169Y-95969263D01*
X137355977Y-95935072D01*
X137330868Y-95909963D01*
X137326780Y-95905453D01*
X137253563Y-95816239D01*
X137240059Y-95796029D01*
X137202898Y-95726508D01*
X137189979Y-95702340D01*
X137180680Y-95679891D01*
X137149837Y-95578222D01*
X137145097Y-95554394D01*
X137138483Y-95487252D01*
X137133799Y-95439693D01*
X137133500Y-95433611D01*
X137133500Y-93198654D01*
X137691500Y-93198654D01*
X137698011Y-93259202D01*
X137698011Y-93259204D01*
X137747575Y-93392086D01*
X137749111Y-93396204D01*
X137836739Y-93513261D01*
X137953796Y-93600889D01*
X138068297Y-93643596D01*
X138085463Y-93649999D01*
X138090799Y-93651989D01*
X138118050Y-93654918D01*
X138151345Y-93658499D01*
X138151362Y-93658500D01*
X139748638Y-93658500D01*
X139748654Y-93658499D01*
X139775692Y-93655591D01*
X139809201Y-93651989D01*
X139814537Y-93649999D01*
X139831703Y-93643596D01*
X139946204Y-93600889D01*
X140063261Y-93513261D01*
X140150889Y-93396204D01*
X140201989Y-93259201D01*
X140205591Y-93225692D01*
X140208499Y-93198654D01*
X140208500Y-93198637D01*
X140208500Y-92201362D01*
X140208499Y-92201345D01*
X140205157Y-92170270D01*
X140201989Y-92140799D01*
X140150889Y-92003796D01*
X140063261Y-91886739D01*
X139946204Y-91799111D01*
X139946203Y-91799110D01*
X139809203Y-91748011D01*
X139748654Y-91741500D01*
X139748638Y-91741500D01*
X138151362Y-91741500D01*
X138151345Y-91741500D01*
X138090797Y-91748011D01*
X138090795Y-91748011D01*
X137953795Y-91799111D01*
X137836739Y-91886739D01*
X137749111Y-92003795D01*
X137698011Y-92140795D01*
X137698011Y-92140797D01*
X137691500Y-92201345D01*
X137691500Y-93198654D01*
X137133500Y-93198654D01*
X137133500Y-90345771D01*
X137117828Y-90226727D01*
X137100418Y-90094483D01*
X137034818Y-89849663D01*
X136937825Y-89615500D01*
X136937823Y-89615497D01*
X136937821Y-89615492D01*
X136811100Y-89396007D01*
X136811096Y-89396000D01*
X136681175Y-89226683D01*
X136656803Y-89194920D01*
X136656797Y-89194913D01*
X136477586Y-89015702D01*
X136477579Y-89015696D01*
X136457106Y-88999987D01*
X149694532Y-88999987D01*
X149714364Y-89226672D01*
X149714366Y-89226683D01*
X149773258Y-89446474D01*
X149773261Y-89446483D01*
X149869431Y-89652718D01*
X149869432Y-89652720D01*
X149999954Y-89839127D01*
X150160858Y-90000031D01*
X150160861Y-90000033D01*
X150347266Y-90130554D01*
X150553504Y-90226725D01*
X150773308Y-90285621D01*
X150943216Y-90300486D01*
X151056784Y-90300486D01*
X151226692Y-90285621D01*
X151446496Y-90226725D01*
X151652734Y-90130554D01*
X151839139Y-90000033D01*
X152000047Y-89839125D01*
X152130568Y-89652720D01*
X152226739Y-89446482D01*
X152285635Y-89226678D01*
X152305468Y-88999986D01*
X152303944Y-88982572D01*
X152293344Y-88861410D01*
X152285635Y-88773294D01*
X152226739Y-88553490D01*
X152130568Y-88347252D01*
X152000047Y-88160847D01*
X152000045Y-88160844D01*
X151839141Y-87999940D01*
X151652734Y-87869418D01*
X151652732Y-87869417D01*
X151446497Y-87773247D01*
X151446488Y-87773244D01*
X151226697Y-87714352D01*
X151226687Y-87714350D01*
X151056784Y-87699486D01*
X150943216Y-87699486D01*
X150773312Y-87714350D01*
X150773302Y-87714352D01*
X150553511Y-87773244D01*
X150553502Y-87773247D01*
X150347267Y-87869417D01*
X150347265Y-87869418D01*
X150160858Y-87999940D01*
X149999954Y-88160844D01*
X149869432Y-88347251D01*
X149869431Y-88347253D01*
X149773261Y-88553488D01*
X149773258Y-88553497D01*
X149714366Y-88773288D01*
X149714364Y-88773299D01*
X149694532Y-88999984D01*
X149694532Y-88999987D01*
X136457106Y-88999987D01*
X136276508Y-88861410D01*
X136276506Y-88861408D01*
X136276500Y-88861404D01*
X136276495Y-88861401D01*
X136276492Y-88861399D01*
X136057007Y-88734678D01*
X136056996Y-88734673D01*
X135822841Y-88637683D01*
X135578013Y-88572081D01*
X135326729Y-88539000D01*
X135326728Y-88539000D01*
X135280030Y-88539000D01*
X134036826Y-88539000D01*
X133969787Y-88519315D01*
X133944677Y-88497973D01*
X133940771Y-88493635D01*
X133939818Y-88492942D01*
X133786269Y-88381382D01*
X133611805Y-88303706D01*
X133611803Y-88303705D01*
X133425004Y-88264000D01*
X133234030Y-88264000D01*
X133047231Y-88303705D01*
X132872763Y-88381383D01*
X132718262Y-88493635D01*
X132590476Y-88635557D01*
X132494990Y-88800943D01*
X132494987Y-88800950D01*
X132435976Y-88982568D01*
X132435975Y-88982572D01*
X132416013Y-89172500D01*
X123290389Y-89172500D01*
X123305482Y-88999986D01*
X123303958Y-88982572D01*
X123293358Y-88861410D01*
X123285649Y-88773294D01*
X123226753Y-88553490D01*
X123130582Y-88347252D01*
X123000061Y-88160847D01*
X123000059Y-88160844D01*
X122839155Y-87999940D01*
X122652748Y-87869418D01*
X122652746Y-87869417D01*
X122446511Y-87773247D01*
X122446502Y-87773244D01*
X122226711Y-87714352D01*
X122226701Y-87714350D01*
X122056798Y-87699486D01*
X121943230Y-87699486D01*
X121773326Y-87714350D01*
X121773316Y-87714352D01*
X121553525Y-87773244D01*
X121553516Y-87773247D01*
X121347281Y-87869417D01*
X121347279Y-87869418D01*
X121160872Y-87999940D01*
X120999968Y-88160844D01*
X120869446Y-88347251D01*
X120869445Y-88347253D01*
X120773275Y-88553488D01*
X120773272Y-88553497D01*
X120714380Y-88773288D01*
X120714378Y-88773299D01*
X120694546Y-88999984D01*
X120694546Y-88999987D01*
X120025580Y-88999987D01*
X120025647Y-88997953D01*
X120025846Y-88994914D01*
X120042142Y-88746312D01*
X120043201Y-88738275D01*
X120043918Y-88734675D01*
X120092004Y-88492937D01*
X120094101Y-88485108D01*
X120174512Y-88248232D01*
X120177616Y-88240738D01*
X120288254Y-88016391D01*
X120292307Y-88009368D01*
X120431296Y-87801360D01*
X120436213Y-87794952D01*
X120601163Y-87606866D01*
X120606894Y-87601137D01*
X120752003Y-87473882D01*
X120794964Y-87436206D01*
X120801401Y-87431268D01*
X120816498Y-87421180D01*
X121009396Y-87292291D01*
X121016409Y-87288242D01*
X121240773Y-87177601D01*
X121248243Y-87174506D01*
X121485133Y-87094094D01*
X121492950Y-87091998D01*
X121692908Y-87052226D01*
X121738301Y-87043198D01*
X121746349Y-87042138D01*
X121789136Y-87039333D01*
X121998416Y-87025619D01*
X122002471Y-87025486D01*
X122008299Y-87025486D01*
X150991728Y-87025486D01*
X150997990Y-87025486D01*
X151002038Y-87025618D01*
G37*
%TD.AperFunction*%
%TD*%
M02*
