M48
; DRILL file {KiCad 7.0.7} date 2023 December 07, Thursday 16:32:06
; FORMAT={-:-/ absolute / inch / decimal}
; #@! TF.CreationDate,2023-12-07T16:32:06+01:00
; #@! TF.GenerationSoftware,Kicad,Pcbnew,7.0.7
; #@! TF.FileFunction,Plated,1,2,PTH
FMAT,2
INCH
; #@! TA.AperFunction,Plated,PTH,ViaDrill
T1C0.0157
%
G90
G05
T1
X4.8032Y-3.76
X4.9606Y-3.8297
X4.9961Y-4.2421
X5.0Y-3.8297
X5.0Y-4.29
X5.0394Y-3.8297
X5.0787Y-3.7844
X5.1142Y-4.21
X5.1181Y-3.7844
X5.15Y-3.5797
X5.1575Y-3.7844
X5.1588Y-4.1437
X5.1969Y-3.9512
X5.2003Y-4.4596
X5.2362Y-3.895
X5.2492Y-3.5107
X5.2756Y-3.9512
X5.3114Y-3.8399
X5.315Y-3.9513
X5.3543Y-3.9513
X5.3937Y-4.1024
X5.4331Y-4.1024
X5.4567Y-3.8612
X5.4724Y-4.1024
X5.48Y-4.19
X5.5118Y-4.1024
X5.5512Y-4.2461
X5.5512Y-4.5079
X5.5906Y-4.2887
X5.5906Y-4.4652
X5.6299Y-4.3314
X5.6299Y-4.4226
X5.6539Y-3.6642
X5.6693Y-4.3783
X5.87Y-3.66
X5.87Y-3.98
T0
M30
