%TF.GenerationSoftware,KiCad,Pcbnew,7.0.7*%
%TF.CreationDate,2023-12-07T16:32:09+01:00*%
%TF.ProjectId,SensitiveSole,53656e73-6974-4697-9665-536f6c652e6b,1.0*%
%TF.SameCoordinates,Original*%
%TF.FileFunction,Copper,L2,Bot*%
%TF.FilePolarity,Positive*%
%FSLAX46Y46*%
G04 Gerber Fmt 4.6, Leading zero omitted, Abs format (unit mm)*
G04 Created by KiCad (PCBNEW 7.0.7) date 2023-12-07 16:32:09*
%MOMM*%
%LPD*%
G01*
G04 APERTURE LIST*
G04 Aperture macros list*
%AMRoundRect*
0 Rectangle with rounded corners*
0 $1 Rounding radius*
0 $2 $3 $4 $5 $6 $7 $8 $9 X,Y pos of 4 corners*
0 Add a 4 corners polygon primitive as box body*
4,1,4,$2,$3,$4,$5,$6,$7,$8,$9,$2,$3,0*
0 Add four circle primitives for the rounded corners*
1,1,$1+$1,$2,$3*
1,1,$1+$1,$4,$5*
1,1,$1+$1,$6,$7*
1,1,$1+$1,$8,$9*
0 Add four rect primitives between the rounded corners*
20,1,$1+$1,$2,$3,$4,$5,0*
20,1,$1+$1,$4,$5,$6,$7,0*
20,1,$1+$1,$6,$7,$8,$9,0*
20,1,$1+$1,$8,$9,$2,$3,0*%
G04 Aperture macros list end*
%TA.AperFunction,SMDPad,CuDef*%
%ADD10R,1.600000X0.300000*%
%TD*%
%TA.AperFunction,SMDPad,CuDef*%
%ADD11RoundRect,0.237500X0.250000X0.237500X-0.250000X0.237500X-0.250000X-0.237500X0.250000X-0.237500X0*%
%TD*%
%TA.AperFunction,SMDPad,CuDef*%
%ADD12RoundRect,0.237500X-0.237500X0.300000X-0.237500X-0.300000X0.237500X-0.300000X0.237500X0.300000X0*%
%TD*%
%TA.AperFunction,SMDPad,CuDef*%
%ADD13R,1.750000X0.450000*%
%TD*%
%TA.AperFunction,SMDPad,CuDef*%
%ADD14RoundRect,0.237500X-0.250000X-0.237500X0.250000X-0.237500X0.250000X0.237500X-0.250000X0.237500X0*%
%TD*%
%TA.AperFunction,ViaPad*%
%ADD15C,0.800000*%
%TD*%
%TA.AperFunction,Conductor*%
%ADD16C,0.250000*%
%TD*%
%TA.AperFunction,Conductor*%
%ADD17C,0.200000*%
%TD*%
G04 APERTURE END LIST*
D10*
%TO.P,BOTTOM_DF12,1,1*%
%TO.N,unconnected-(BOTTOM_DF12-Pad1)*%
X125300114Y-99249986D03*
%TO.P,BOTTOM_DF12,2,2*%
%TO.N,+5V*%
X121699914Y-99249986D03*
%TO.P,BOTTOM_DF12,3,3*%
%TO.N,unconnected-(BOTTOM_DF12-Pad3)*%
X125300114Y-99749986D03*
%TO.P,BOTTOM_DF12,4,4*%
%TO.N,+5V*%
X121699914Y-99749986D03*
%TO.P,BOTTOM_DF12,5,5*%
%TO.N,/IO39*%
X125300114Y-100249986D03*
%TO.P,BOTTOM_DF12,6,6*%
%TO.N,/BATT*%
X121699914Y-100249986D03*
%TO.P,BOTTOM_DF12,7,7*%
%TO.N,unconnected-(BOTTOM_DF12-Pad7)*%
X125300114Y-100749986D03*
%TO.P,BOTTOM_DF12,8,8*%
%TO.N,/VBATT*%
X121699914Y-100749986D03*
%TO.P,BOTTOM_DF12,9,9*%
%TO.N,unconnected-(BOTTOM_DF12-Pad9)*%
X125300114Y-101249986D03*
%TO.P,BOTTOM_DF12,10,10*%
%TO.N,/PB*%
X121699914Y-101249986D03*
%TO.P,BOTTOM_DF12,11,11*%
%TO.N,unconnected-(BOTTOM_DF12-Pad11)*%
X125300114Y-101749986D03*
%TO.P,BOTTOM_DF12,12,12*%
%TO.N,/RESET*%
X121699914Y-101749986D03*
%TO.P,BOTTOM_DF12,13,13*%
%TO.N,/IO32*%
X125300114Y-102249986D03*
%TO.P,BOTTOM_DF12,14,14*%
%TO.N,/GPIO0*%
X121699914Y-102249986D03*
%TO.P,BOTTOM_DF12,15,15*%
%TO.N,/IO33*%
X125300114Y-102749986D03*
%TO.P,BOTTOM_DF12,16,16*%
%TO.N,/RXD*%
X121699914Y-102749986D03*
%TO.P,BOTTOM_DF12,17,17*%
%TO.N,/IO25*%
X125300114Y-103249986D03*
%TO.P,BOTTOM_DF12,18,18*%
%TO.N,/TXD*%
X121699914Y-103249986D03*
%TO.P,BOTTOM_DF12,19,19*%
%TO.N,/IO26*%
X125300114Y-103749986D03*
%TO.P,BOTTOM_DF12,20,20*%
%TO.N,/SCK*%
X121699914Y-103749986D03*
%TO.P,BOTTOM_DF12,21,21*%
%TO.N,/IO27*%
X125300114Y-104249986D03*
%TO.P,BOTTOM_DF12,22,22*%
%TO.N,/MOSI*%
X121699914Y-104249986D03*
%TO.P,BOTTOM_DF12,23,23*%
%TO.N,/IO14*%
X125300114Y-104749986D03*
%TO.P,BOTTOM_DF12,24,24*%
%TO.N,/MISO*%
X121699914Y-104749986D03*
%TO.P,BOTTOM_DF12,25,25*%
%TO.N,/IO15*%
X125300114Y-105249986D03*
%TO.P,BOTTOM_DF12,26,26*%
%TO.N,/SDA*%
X121699914Y-105249986D03*
%TO.P,BOTTOM_DF12,27,27*%
%TO.N,/IO12*%
X125300114Y-105749986D03*
%TO.P,BOTTOM_DF12,28,28*%
%TO.N,/SCL*%
X121699914Y-105749986D03*
%TO.P,BOTTOM_DF12,29,29*%
%TO.N,unconnected-(BOTTOM_DF12-Pad29)*%
X125300114Y-106249986D03*
%TO.P,BOTTOM_DF12,30,30*%
%TO.N,+3.3V*%
X121699914Y-106249986D03*
%TO.P,BOTTOM_DF12,31,31*%
%TO.N,unconnected-(BOTTOM_DF12-Pad31)*%
X125300114Y-106749986D03*
%TO.P,BOTTOM_DF12,32,32*%
%TO.N,+3.3V*%
X121699914Y-106749986D03*
%TO.P,BOTTOM_DF12,33,33*%
%TO.N,/IO5*%
X125300114Y-107249986D03*
%TO.P,BOTTOM_DF12,34,34*%
%TO.N,GND*%
X121699914Y-107249986D03*
%TO.P,BOTTOM_DF12,35,35*%
%TO.N,/IO2*%
X125300114Y-107749986D03*
%TO.P,BOTTOM_DF12,36,36*%
%TO.N,GND*%
X121699914Y-107749986D03*
%TD*%
D11*
%TO.P,6,1*%
%TO.N,GND*%
X145912500Y-107850000D03*
%TO.P,6,2*%
%TO.N,/COL6*%
X144087500Y-107850000D03*
%TD*%
%TO.P,4,1*%
%TO.N,GND*%
X145912500Y-110016668D03*
%TO.P,4,2*%
%TO.N,/COL4*%
X144087500Y-110016668D03*
%TD*%
%TO.P,2,1*%
%TO.N,GND*%
X145912500Y-112333332D03*
%TO.P,2,2*%
%TO.N,/COL2*%
X144087500Y-112333332D03*
%TD*%
D12*
%TO.P,C2,1*%
%TO.N,+3.3V*%
X122228000Y-111379000D03*
%TO.P,C2,2*%
%TO.N,GND*%
X122228000Y-113104000D03*
%TD*%
%TO.P,C1,1*%
%TO.N,+3.3V*%
X125538000Y-111379000D03*
%TO.P,C1,2*%
%TO.N,GND*%
X125538000Y-113104000D03*
%TD*%
D11*
%TO.P,0,1*%
%TO.N,GND*%
X145912500Y-114500000D03*
%TO.P,0,2*%
%TO.N,/COL0*%
X144087500Y-114500000D03*
%TD*%
D13*
%TO.P,COLS,1,COM*%
%TO.N,/IO39*%
X137100000Y-107925000D03*
%TO.P,COLS,2,I7*%
%TO.N,unconnected-(U1-I7-Pad2)*%
X137100000Y-108575000D03*
%TO.P,COLS,3,I6*%
%TO.N,/COL6*%
X137100000Y-109225000D03*
%TO.P,COLS,4,I5*%
%TO.N,/COL5*%
X137100000Y-109875000D03*
%TO.P,COLS,5,I4*%
%TO.N,/COL4*%
X137100000Y-110525000D03*
%TO.P,COLS,6,I3*%
%TO.N,/COL3*%
X137100000Y-111175000D03*
%TO.P,COLS,7,I2*%
%TO.N,/COL2*%
X137100000Y-111825000D03*
%TO.P,COLS,8,I1*%
%TO.N,/COL1*%
X137100000Y-112475000D03*
%TO.P,COLS,9,I0*%
%TO.N,/COL0*%
X137100000Y-113125000D03*
%TO.P,COLS,10,S0*%
%TO.N,/IO32*%
X137100000Y-113775000D03*
%TO.P,COLS,11,S1*%
%TO.N,/IO33*%
X137100000Y-114425000D03*
%TO.P,COLS,12,GND*%
%TO.N,GND*%
X137100000Y-115075000D03*
%TO.P,COLS,13,S3*%
%TO.N,/IO26*%
X129900000Y-115075000D03*
%TO.P,COLS,14,S2*%
%TO.N,/IO25*%
X129900000Y-114425000D03*
%TO.P,COLS,15,~{E}*%
%TO.N,GND*%
X129900000Y-113775000D03*
%TO.P,COLS,16,I15*%
%TO.N,unconnected-(U1-I15-Pad16)*%
X129900000Y-113125000D03*
%TO.P,COLS,17,I14*%
%TO.N,unconnected-(U1-I14-Pad17)*%
X129900000Y-112475000D03*
%TO.P,COLS,18,I13*%
%TO.N,unconnected-(U1-I13-Pad18)*%
X129900000Y-111825000D03*
%TO.P,COLS,19,I12*%
%TO.N,unconnected-(U1-I12-Pad19)*%
X129900000Y-111175000D03*
%TO.P,COLS,20,I11*%
%TO.N,unconnected-(U1-I11-Pad20)*%
X129900000Y-110525000D03*
%TO.P,COLS,21,I10*%
%TO.N,unconnected-(U1-I10-Pad21)*%
X129900000Y-109875000D03*
%TO.P,COLS,22,I9*%
%TO.N,unconnected-(U1-I9-Pad22)*%
X129900000Y-109225000D03*
%TO.P,COLS,23,I8*%
%TO.N,unconnected-(U1-I8-Pad23)*%
X129900000Y-108575000D03*
%TO.P,COLS,24,VCC*%
%TO.N,+3.3V*%
X129900000Y-107925000D03*
%TD*%
D11*
%TO.P,1,1*%
%TO.N,GND*%
X149412500Y-113416650D03*
%TO.P,1,2*%
%TO.N,/COL1*%
X147587500Y-113416650D03*
%TD*%
D12*
%TO.P,0,1*%
%TO.N,+3.3V*%
X143610000Y-89997500D03*
%TO.P,0,2*%
%TO.N,Net-(D1-VDD)*%
X143610000Y-91722500D03*
%TD*%
D11*
%TO.P,5,1*%
%TO.N,GND*%
X149412500Y-108933350D03*
%TO.P,5,2*%
%TO.N,/COL5*%
X147587500Y-108933350D03*
%TD*%
D14*
%TO.P,R8,1*%
%TO.N,/IO15*%
X127680000Y-105249986D03*
%TO.P,R8,2*%
%TO.N,Net-(D1-DIN)*%
X129505000Y-105249986D03*
%TD*%
D13*
%TO.P,ROWS,1,COM*%
%TO.N,/IO2*%
X132900000Y-98075000D03*
%TO.P,ROWS,2,I7*%
%TO.N,/ROW7*%
X132900000Y-97425000D03*
%TO.P,ROWS,3,I6*%
%TO.N,/ROW6*%
X132900000Y-96775000D03*
%TO.P,ROWS,4,I5*%
%TO.N,/ROW5*%
X132900000Y-96125000D03*
%TO.P,ROWS,5,I4*%
%TO.N,/ROW4*%
X132900000Y-95475000D03*
%TO.P,ROWS,6,I3*%
%TO.N,/ROW3*%
X132900000Y-94825000D03*
%TO.P,ROWS,7,I2*%
%TO.N,/ROW2*%
X132900000Y-94175000D03*
%TO.P,ROWS,8,I1*%
%TO.N,/ROW1*%
X132900000Y-93525000D03*
%TO.P,ROWS,9,I0*%
%TO.N,/ROW0*%
X132900000Y-92875000D03*
%TO.P,ROWS,10,S0*%
%TO.N,/IO27*%
X132900000Y-92225000D03*
%TO.P,ROWS,11,S1*%
%TO.N,/IO14*%
X132900000Y-91575000D03*
%TO.P,ROWS,12,GND*%
%TO.N,GND*%
X132900000Y-90925000D03*
%TO.P,ROWS,13,S3*%
%TO.N,/IO5*%
X140100000Y-90925000D03*
%TO.P,ROWS,14,S2*%
%TO.N,/IO12*%
X140100000Y-91575000D03*
%TO.P,ROWS,15,~{E}*%
%TO.N,GND*%
X140100000Y-92225000D03*
%TO.P,ROWS,16,I15*%
%TO.N,unconnected-(U2-I15-Pad16)*%
X140100000Y-92875000D03*
%TO.P,ROWS,17,I14*%
%TO.N,/ROW14*%
X140100000Y-93525000D03*
%TO.P,ROWS,18,I13*%
%TO.N,/ROW13*%
X140100000Y-94175000D03*
%TO.P,ROWS,19,I12*%
%TO.N,/ROW12*%
X140100000Y-94825000D03*
%TO.P,ROWS,20,I11*%
%TO.N,/ROW11*%
X140100000Y-95475000D03*
%TO.P,ROWS,21,I10*%
%TO.N,/ROW10*%
X140100000Y-96125000D03*
%TO.P,ROWS,22,I9*%
%TO.N,/ROW9*%
X140100000Y-96775000D03*
%TO.P,ROWS,23,I8*%
%TO.N,/ROW8*%
X140100000Y-97425000D03*
%TO.P,ROWS,24,VCC*%
%TO.N,+3.3V*%
X140100000Y-98075000D03*
%TD*%
D11*
%TO.P,3,1*%
%TO.N,GND*%
X149412500Y-111208325D03*
%TO.P,3,2*%
%TO.N,/COL3*%
X147587500Y-111208325D03*
%TD*%
D15*
%TO.N,GND*%
X122000014Y-95504000D03*
X149098000Y-92964000D03*
X132088000Y-113275000D03*
X139192000Y-106426000D03*
X130810000Y-90925000D03*
X149098000Y-101092000D03*
%TO.N,+3.3V*%
X138600000Y-98075000D03*
X129900000Y-106934000D03*
X127000000Y-108966000D03*
X133329517Y-89172500D03*
%TO.N,/IO2*%
X126900000Y-107749986D03*
X134910000Y-97532500D03*
%TO.N,/COL6*%
X141000000Y-107850000D03*
%TO.N,/COL5*%
X142000000Y-108933300D03*
%TO.N,/COL4*%
X143000000Y-110016700D03*
%TO.N,/COL3*%
X144000000Y-111208300D03*
%TO.N,/COL2*%
X143000000Y-112333300D03*
%TO.N,/COL1*%
X142000000Y-113416700D03*
%TO.N,/COL0*%
X141000000Y-114500000D03*
%TO.N,/ROW7*%
X133000000Y-98933000D03*
%TO.N,/ROW6*%
X132000000Y-100360000D03*
%TO.N,/ROW5*%
X131000000Y-96125000D03*
%TO.N,/ROW4*%
X130000000Y-96125000D03*
%TO.N,/ROW3*%
X129000000Y-96125000D03*
%TO.N,/ROW2*%
X128000000Y-97275000D03*
%TO.N,/ROW1*%
X127000000Y-97275000D03*
%TO.N,/ROW0*%
X126000000Y-97275000D03*
%TO.N,/ROW14*%
X140000000Y-104200000D03*
%TO.N,/ROW13*%
X139000000Y-104200000D03*
%TO.N,/ROW12*%
X138000000Y-104200000D03*
%TO.N,/ROW11*%
X137000000Y-104200000D03*
%TO.N,/ROW10*%
X136000000Y-100363500D03*
%TO.N,/ROW9*%
X135000000Y-100363500D03*
%TO.N,/ROW8*%
X134000000Y-100360000D03*
%TO.N,Net-(D1-VDD)*%
X143610000Y-93070000D03*
%TO.N,Net-(D1-DIN)*%
X131034000Y-105249986D03*
%TD*%
D16*
%TO.N,GND*%
X149412500Y-112207500D02*
X149412500Y-111208325D01*
X121699914Y-107249986D02*
X121699914Y-107749986D01*
X136899000Y-90925000D02*
X138199000Y-92225000D01*
X132900000Y-90925000D02*
X130810000Y-90925000D01*
X123096000Y-108800000D02*
X123096000Y-108800000D01*
X122000000Y-107704000D02*
X122000000Y-107704000D01*
X131588000Y-113775000D02*
X129900000Y-113775000D01*
X121699914Y-107749986D02*
X122349914Y-107749986D01*
X137100000Y-115075000D02*
X138671000Y-115075000D01*
X132900000Y-90925000D02*
X136899000Y-90925000D01*
X149317332Y-110016668D02*
X149412500Y-109921500D01*
X145912500Y-110016668D02*
X149317332Y-110016668D01*
X145912500Y-112333332D02*
X149286668Y-112333332D01*
X121699914Y-107249986D02*
X120212000Y-107249986D01*
X131588000Y-113775000D02*
X132088000Y-113275000D01*
X149412500Y-109921500D02*
X149412500Y-108933350D01*
X138199000Y-92225000D02*
X140100000Y-92225000D01*
X149286668Y-112333332D02*
X149412500Y-112207500D01*
X122000000Y-107704000D02*
G75*
G03*
X120904000Y-108800000I0J-1096000D01*
G01*
X122000000Y-109896000D02*
G75*
G03*
X123096000Y-108800000I0J1096000D01*
G01*
X120904000Y-108800000D02*
G75*
G03*
X122000000Y-109896000I1096000J0D01*
G01*
X123096000Y-108800000D02*
G75*
G03*
X122000000Y-107704000I-1096000J0D01*
G01*
%TO.N,+5V*%
X121699914Y-99249986D02*
X121699914Y-99749986D01*
%TO.N,/IO39*%
X125300114Y-100249986D02*
X130353174Y-100249986D01*
X137100000Y-106996812D02*
X137100000Y-107925000D01*
X130353174Y-100249986D02*
X137100000Y-106996812D01*
%TO.N,/IO32*%
X135450000Y-113250000D02*
X135975000Y-113775000D01*
X135450000Y-106003406D02*
X135450000Y-113250000D01*
X125300114Y-102249986D02*
X131696580Y-102249986D01*
X131696580Y-102249986D02*
X135450000Y-106003406D01*
X135975000Y-113775000D02*
X137100000Y-113775000D01*
%TO.N,/IO33*%
X125300114Y-102749986D02*
X131560184Y-102749986D01*
X135988604Y-114425000D02*
X137100000Y-114425000D01*
X131560184Y-102749986D02*
X135000000Y-106189802D01*
X135000000Y-106189802D02*
X135000000Y-113436396D01*
X135000000Y-113436396D02*
X135988604Y-114425000D01*
%TO.N,/IO25*%
X125300114Y-103249986D02*
X131409986Y-103249986D01*
X134550000Y-113436396D02*
X133561396Y-114425000D01*
X134550000Y-106390000D02*
X134550000Y-113436396D01*
X133561396Y-114425000D02*
X129900000Y-114425000D01*
X131409986Y-103249986D02*
X134550000Y-106390000D01*
%TO.N,/IO26*%
X131464557Y-103940953D02*
X132119034Y-104595430D01*
X127870000Y-106824000D02*
X127870000Y-114423000D01*
X128522000Y-115075000D02*
X129900000Y-115075000D01*
X131658000Y-106172000D02*
X128522000Y-106172000D01*
X132310000Y-105056463D02*
X132310000Y-105520000D01*
X125300114Y-103749986D02*
X131003523Y-103749986D01*
X132310025Y-105056463D02*
G75*
G03*
X132119033Y-104595431I-652025J-37D01*
G01*
X127870000Y-114423000D02*
G75*
G03*
X128522000Y-115075000I652000J0D01*
G01*
X131658000Y-106172000D02*
G75*
G03*
X132310000Y-105520000I0J652000D01*
G01*
X128522000Y-106172000D02*
G75*
G03*
X127870000Y-106824000I0J-652000D01*
G01*
X131464549Y-103940961D02*
G75*
G03*
X131003523Y-103749986I-461049J-461039D01*
G01*
D17*
%TO.N,/IO27*%
X124054000Y-104103872D02*
X124054000Y-94175000D01*
X125300114Y-104249986D02*
X124200114Y-104249986D01*
X124200114Y-104249986D02*
X124054000Y-104103872D01*
X126004000Y-92225000D02*
X132900000Y-92225000D01*
X126004000Y-92225000D02*
G75*
G03*
X124054000Y-94175000I0J-1950000D01*
G01*
%TO.N,/IO14*%
X126004000Y-91825000D02*
X131450000Y-91825000D01*
X123654000Y-104340268D02*
X123654000Y-94175000D01*
X131450000Y-91825000D02*
X131700000Y-91575000D01*
X131700000Y-91575000D02*
X132900000Y-91575000D01*
X124063718Y-104749986D02*
X123654000Y-104340268D01*
X125300114Y-104749986D02*
X124063718Y-104749986D01*
X126004000Y-91825000D02*
G75*
G03*
X123654000Y-94175000I0J-2350000D01*
G01*
D16*
%TO.N,/IO15*%
X127680000Y-105249986D02*
X125300114Y-105249986D01*
D17*
%TO.N,/IO12*%
X138453239Y-91575000D02*
X140100000Y-91575000D01*
X132588000Y-89997500D02*
X132863000Y-90272500D01*
X137150239Y-90272000D02*
X138453239Y-91575000D01*
X132863000Y-90272500D02*
X133096000Y-90272500D01*
X133000000Y-90272000D02*
X137150239Y-90272000D01*
X123254000Y-104803872D02*
X123254000Y-92597500D01*
X125854000Y-89997500D02*
X132588000Y-89997500D01*
X124200114Y-105749986D02*
X123254000Y-104803872D01*
X125300114Y-105749986D02*
X124200114Y-105749986D01*
X125854000Y-89997500D02*
G75*
G03*
X123254000Y-92597500I0J-2600000D01*
G01*
D16*
%TO.N,+3.3V*%
X120776761Y-95123239D02*
X121773739Y-94126261D01*
X121699914Y-106249986D02*
X120727986Y-106249986D01*
X124938000Y-111379000D02*
X126619000Y-111379000D01*
X129900000Y-106934000D02*
X129900000Y-107925000D01*
X123698000Y-107648072D02*
X123698000Y-111379000D01*
X127000000Y-110998000D02*
X127000000Y-108966000D01*
X127000000Y-108966000D02*
X127000000Y-108712000D01*
X122799914Y-106749986D02*
X123698000Y-107648072D01*
X122228000Y-111379000D02*
X123698000Y-111379000D01*
X121699914Y-106749986D02*
X121699914Y-106249986D01*
X123698000Y-111379000D02*
X124938000Y-111379000D01*
X140100000Y-98075000D02*
X138600000Y-98075000D01*
X133329517Y-89172500D02*
X142246522Y-89172500D01*
X120727986Y-106249986D02*
X120396000Y-105918000D01*
X143165761Y-89553261D02*
X143610000Y-89997500D01*
X126619000Y-111379000D02*
X127000000Y-110998000D01*
X125621606Y-89172500D02*
X133329517Y-89172500D01*
X121699914Y-106749986D02*
X122799914Y-106749986D01*
X122154500Y-93207022D02*
X122154500Y-92639606D01*
X120396000Y-105918000D02*
X120396000Y-96042478D01*
X125621606Y-89172500D02*
G75*
G03*
X122154500Y-92639606I-6J-3467100D01*
G01*
X120776772Y-95123250D02*
G75*
G03*
X120396000Y-96042478I919228J-919250D01*
G01*
X121773728Y-94126250D02*
G75*
G03*
X122154500Y-93207022I-919228J919250D01*
G01*
X143165750Y-89553272D02*
G75*
G03*
X142246522Y-89172500I-919250J-919228D01*
G01*
D17*
%TO.N,/IO5*%
X125300114Y-107249986D02*
X124200114Y-107249986D01*
X122854000Y-105903872D02*
X122854000Y-92597500D01*
X139047500Y-89872500D02*
X140100000Y-90925000D01*
X124200114Y-107249986D02*
X122854000Y-105903872D01*
X133039567Y-89872500D02*
X139047500Y-89872500D01*
X132764567Y-89597500D02*
X133039567Y-89872500D01*
X125854000Y-89597500D02*
X132764567Y-89597500D01*
X125854000Y-89597500D02*
G75*
G03*
X122854000Y-92597500I0J-3000000D01*
G01*
D16*
%TO.N,/IO2*%
X125300114Y-107749986D02*
X126900000Y-107749986D01*
X134367500Y-98075000D02*
X132900000Y-98075000D01*
X134367500Y-98075000D02*
G75*
G03*
X134910000Y-97532500I0J542500D01*
G01*
%TO.N,/COL6*%
X141000000Y-107850000D02*
X144087500Y-107850000D01*
X139815381Y-109034619D02*
X141000000Y-107850000D01*
X137100000Y-109225000D02*
X139355761Y-109225000D01*
X139355761Y-109224972D02*
G75*
G03*
X139815381Y-109034619I39J649972D01*
G01*
%TO.N,/COL5*%
X142000000Y-108933300D02*
X141348139Y-108933300D01*
X139867961Y-109875000D02*
X137100000Y-109875000D01*
X142000050Y-108933350D02*
X142000000Y-108933300D01*
X140888519Y-109123681D02*
X140327580Y-109684620D01*
X147587500Y-108933350D02*
X142000050Y-108933350D01*
X139867961Y-109874972D02*
G75*
G03*
X140327580Y-109684620I39J649972D01*
G01*
X141348139Y-108933328D02*
G75*
G03*
X140888519Y-109123681I-39J-649972D01*
G01*
%TO.N,/COL4*%
X140233961Y-110525000D02*
X137100000Y-110525000D01*
X140821151Y-110207049D02*
X140693580Y-110334620D01*
X144087500Y-110016668D02*
X141280771Y-110016668D01*
X140233961Y-110524972D02*
G75*
G03*
X140693580Y-110334620I39J649972D01*
G01*
X141280771Y-110016657D02*
G75*
G03*
X140821151Y-110207049I29J-650043D01*
G01*
%TO.N,/COL3*%
X137133325Y-111208325D02*
X137100000Y-111175000D01*
X147587500Y-111208325D02*
X137133325Y-111208325D01*
%TO.N,/COL2*%
X140821151Y-112142951D02*
X140693580Y-112015380D01*
X144087500Y-112333332D02*
X141280771Y-112333332D01*
X140233961Y-111825000D02*
X137100000Y-111825000D01*
X140693599Y-112015361D02*
G75*
G03*
X140233961Y-111825000I-459599J-459639D01*
G01*
X140821159Y-112142943D02*
G75*
G03*
X141280771Y-112333332I459641J459643D01*
G01*
%TO.N,/COL1*%
X140888519Y-113226319D02*
X140327580Y-112665380D01*
X139867961Y-112475000D02*
X137100000Y-112475000D01*
X142000000Y-113416700D02*
X141348139Y-113416700D01*
X147587500Y-113416650D02*
X142000050Y-113416650D01*
X140327599Y-112665361D02*
G75*
G03*
X139867961Y-112475000I-459599J-459639D01*
G01*
X140888500Y-113226338D02*
G75*
G03*
X141348139Y-113416700I459600J459638D01*
G01*
%TO.N,/COL0*%
X139815381Y-113315381D02*
X141000000Y-114500000D01*
X141000000Y-114500000D02*
X144087500Y-114500000D01*
X137100000Y-113125000D02*
X139355761Y-113125000D01*
X139815400Y-113315362D02*
G75*
G03*
X139355761Y-113125000I-459600J-459638D01*
G01*
%TO.N,/ROW7*%
X133000000Y-98933000D02*
X131953000Y-98933000D01*
X131800000Y-97425000D02*
X132900000Y-97425000D01*
X131318000Y-98298000D02*
X131318000Y-97907000D01*
X131953000Y-98933000D02*
X131318000Y-98298000D01*
X131318000Y-97907000D02*
X131800000Y-97425000D01*
%TO.N,/ROW6*%
X131571000Y-96775000D02*
X132900000Y-96775000D01*
X132000000Y-100360000D02*
X130694654Y-99054654D01*
X130694654Y-97651346D02*
X131571000Y-96775000D01*
X130694654Y-99054654D02*
X130694654Y-97651346D01*
%TO.N,/ROW5*%
X132900000Y-96125000D02*
X131000000Y-96125000D01*
D17*
%TO.N,/ROW4*%
X130857406Y-95425000D02*
X131322000Y-95425000D01*
X132871000Y-95504000D02*
X132900000Y-95475000D01*
X130000000Y-96125000D02*
X130000000Y-96125000D01*
X131392711Y-95454290D02*
X131413132Y-95474711D01*
X131483842Y-95504000D02*
X132871000Y-95504000D01*
X130000000Y-96125000D02*
X130588698Y-95536302D01*
X130857406Y-95425001D02*
G75*
G03*
X130588698Y-95536302I-6J-379999D01*
G01*
X131392711Y-95454290D02*
G75*
G03*
X131322000Y-95425000I-70711J-70710D01*
G01*
X131413111Y-95474732D02*
G75*
G03*
X131483842Y-95504000I70689J70732D01*
G01*
%TO.N,/ROW3*%
X130300000Y-94825000D02*
X132900000Y-94825000D01*
X129000000Y-96125000D02*
X129000000Y-96125000D01*
X130300000Y-94825000D02*
G75*
G03*
X129000000Y-96125000I0J-1300000D01*
G01*
%TO.N,/ROW2*%
X128000000Y-94869177D02*
X128000000Y-97275000D01*
X128694177Y-94175000D02*
X132900000Y-94175000D01*
X128694177Y-94175000D02*
G75*
G03*
X128000000Y-94869177I23J-694200D01*
G01*
%TO.N,/ROW1*%
X127000000Y-94721920D02*
X127000000Y-97275000D01*
X128196920Y-93525000D02*
X132900000Y-93525000D01*
X128196920Y-93525000D02*
G75*
G03*
X127000000Y-94721920I-20J-1196900D01*
G01*
%TO.N,/ROW0*%
X127683133Y-92875000D02*
X132900000Y-92875000D01*
X126000000Y-94558133D02*
X126000000Y-97275000D01*
X127683133Y-92875000D02*
G75*
G03*
X126000000Y-94558133I-33J-1683100D01*
G01*
%TO.N,/ROW14*%
X140650000Y-102963500D02*
X140992000Y-102963500D01*
X145542000Y-98075000D02*
X145542000Y-98413500D01*
X140000000Y-104200000D02*
X140000000Y-103613500D01*
X140100000Y-93525000D02*
X140992000Y-93525000D01*
X145542000Y-98075000D02*
G75*
G03*
X140992000Y-93525000I-4550000J0D01*
G01*
X140650000Y-102963500D02*
G75*
G03*
X140000000Y-103613500I0J-650000D01*
G01*
X140992000Y-102963500D02*
G75*
G03*
X145542000Y-98413500I0J4550000D01*
G01*
%TO.N,/ROW13*%
X144892000Y-98075000D02*
X144892000Y-98413500D01*
X139000000Y-102963500D02*
X139000000Y-104200000D01*
X140100000Y-94175000D02*
X140992000Y-94175000D01*
X139650000Y-102313500D02*
X140992000Y-102313500D01*
X139650000Y-102313500D02*
G75*
G03*
X139000000Y-102963500I0J-650000D01*
G01*
X144892000Y-98075000D02*
G75*
G03*
X140992000Y-94175000I-3900000J0D01*
G01*
X140992000Y-102313500D02*
G75*
G03*
X144892000Y-98413500I0J3900000D01*
G01*
%TO.N,/ROW12*%
X140100000Y-94825000D02*
X140992000Y-94825000D01*
X144242000Y-98075000D02*
X144242000Y-98413500D01*
X138000000Y-102963500D02*
X138000000Y-104200000D01*
X139300000Y-101663500D02*
X140992000Y-101663500D01*
X144242000Y-98075000D02*
G75*
G03*
X140992000Y-94825000I-3250000J0D01*
G01*
X140992000Y-101663500D02*
G75*
G03*
X144242000Y-98413500I0J3250000D01*
G01*
X139300000Y-101663500D02*
G75*
G03*
X138000000Y-102963500I0J-1300000D01*
G01*
%TO.N,/ROW11*%
X143592000Y-98075000D02*
X143592000Y-98413500D01*
X137000000Y-102963500D02*
X137000000Y-104200000D01*
X138950000Y-101013500D02*
X140992000Y-101013500D01*
X140100000Y-95475000D02*
X140992000Y-95475000D01*
X140992000Y-101013500D02*
G75*
G03*
X143592000Y-98413500I0J2600000D01*
G01*
X138950000Y-101013500D02*
G75*
G03*
X137000000Y-102963500I0J-1950000D01*
G01*
X143592000Y-98075000D02*
G75*
G03*
X140992000Y-95475000I-2600000J0D01*
G01*
%TO.N,/ROW10*%
X142942000Y-98075000D02*
X142942000Y-98413500D01*
X140100000Y-96125000D02*
X140992000Y-96125000D01*
X136000000Y-100363500D02*
X140992000Y-100363500D01*
X142942000Y-98075000D02*
G75*
G03*
X140992000Y-96125000I-1950000J0D01*
G01*
X140992000Y-100363500D02*
G75*
G03*
X142942000Y-98413500I0J1950000D01*
G01*
%TO.N,/ROW9*%
X136950000Y-99663500D02*
X135863602Y-99663500D01*
X137000000Y-99713500D02*
X140992000Y-99713500D01*
X140100000Y-96775000D02*
X140992000Y-96775000D01*
X137000000Y-99713500D02*
X136950000Y-99663500D01*
X135584316Y-99779184D02*
X135000000Y-100363500D01*
X142292000Y-98075000D02*
X142292000Y-98413500D01*
X140992000Y-99713500D02*
G75*
G03*
X142292000Y-98413500I0J1300000D01*
G01*
X142292000Y-98075000D02*
G75*
G03*
X140992000Y-96775000I-1300000J0D01*
G01*
X135863602Y-99663511D02*
G75*
G03*
X135584317Y-99779185I-2J-394989D01*
G01*
%TO.N,/ROW8*%
X138563276Y-97375000D02*
X140050000Y-97375000D01*
X136780618Y-98928494D02*
X136780618Y-98904432D01*
X140050000Y-97375000D02*
X140100000Y-97425000D01*
X135300000Y-99060000D02*
X136382761Y-99060000D01*
X136780618Y-98904432D02*
X138130993Y-97554057D01*
X138563276Y-97374971D02*
G75*
G03*
X138130993Y-97554057I24J-611329D01*
G01*
X136382761Y-99060023D02*
G75*
G03*
X136780618Y-98928494I-5761J684923D01*
G01*
X135300000Y-99060000D02*
G75*
G03*
X134000000Y-100360000I0J-1300000D01*
G01*
D16*
%TO.N,Net-(D1-VDD)*%
X143610000Y-91722500D02*
X143610000Y-93070000D01*
%TO.N,Net-(D1-DIN)*%
X129505000Y-105249986D02*
X130780000Y-105249986D01*
%TD*%
%TA.AperFunction,Conductor*%
%TO.N,GND*%
G36*
X151002038Y-87025618D02*
G01*
X151253686Y-87042114D01*
X151261722Y-87043172D01*
X151507061Y-87091974D01*
X151514898Y-87094073D01*
X151751767Y-87174482D01*
X151759267Y-87177589D01*
X151869904Y-87232148D01*
X151983618Y-87288226D01*
X151990642Y-87292283D01*
X152119094Y-87378111D01*
X152198632Y-87431257D01*
X152205068Y-87436196D01*
X152393133Y-87601126D01*
X152398873Y-87606866D01*
X152563803Y-87794931D01*
X152568744Y-87801369D01*
X152589642Y-87832645D01*
X152707716Y-88009357D01*
X152711776Y-88016387D01*
X152822410Y-88240732D01*
X152825517Y-88248232D01*
X152905924Y-88485097D01*
X152908025Y-88492939D01*
X152956826Y-88738275D01*
X152957886Y-88746323D01*
X152970045Y-88931815D01*
X152974381Y-88997952D01*
X152974514Y-89002009D01*
X152974514Y-117997949D01*
X152974381Y-118002005D01*
X152957889Y-118253653D01*
X152956829Y-118261702D01*
X152908031Y-118507037D01*
X152905929Y-118514879D01*
X152825525Y-118751749D01*
X152822418Y-118759249D01*
X152711784Y-118983597D01*
X152707725Y-118990628D01*
X152568755Y-119198615D01*
X152563812Y-119205056D01*
X152398883Y-119393124D01*
X152393143Y-119398865D01*
X152205078Y-119563796D01*
X152198636Y-119568739D01*
X151990653Y-119707710D01*
X151983622Y-119711769D01*
X151759272Y-119822409D01*
X151751771Y-119825516D01*
X151514906Y-119905922D01*
X151507064Y-119908023D01*
X151261727Y-119956826D01*
X151253678Y-119957886D01*
X151145298Y-119964990D01*
X151002465Y-119974353D01*
X150998417Y-119974486D01*
X122002050Y-119974486D01*
X121997995Y-119974353D01*
X121746342Y-119957861D01*
X121738292Y-119956801D01*
X121492970Y-119908003D01*
X121485128Y-119905902D01*
X121248251Y-119825496D01*
X121240755Y-119822391D01*
X121016408Y-119711755D01*
X121009379Y-119707697D01*
X120905386Y-119638211D01*
X120801390Y-119568724D01*
X120794958Y-119563788D01*
X120606884Y-119398852D01*
X120601145Y-119393113D01*
X120553128Y-119338360D01*
X120436209Y-119205039D01*
X120431277Y-119198611D01*
X120292301Y-118990618D01*
X120288246Y-118983596D01*
X120177604Y-118759236D01*
X120174505Y-118751754D01*
X120140800Y-118652460D01*
X120094097Y-118514871D01*
X120091996Y-118507029D01*
X120089528Y-118494625D01*
X120043196Y-118261694D01*
X120042138Y-118253657D01*
X120025647Y-118002004D01*
X120025581Y-118000001D01*
X120694546Y-118000001D01*
X120714378Y-118226686D01*
X120714380Y-118226697D01*
X120773272Y-118446488D01*
X120773275Y-118446497D01*
X120869445Y-118652732D01*
X120869446Y-118652734D01*
X120999968Y-118839141D01*
X121160872Y-119000045D01*
X121160875Y-119000047D01*
X121347280Y-119130568D01*
X121553518Y-119226739D01*
X121773322Y-119285635D01*
X121943230Y-119300500D01*
X122056798Y-119300500D01*
X122226706Y-119285635D01*
X122446510Y-119226739D01*
X122652748Y-119130568D01*
X122839153Y-119000047D01*
X123000061Y-118839139D01*
X123130582Y-118652734D01*
X123226753Y-118446496D01*
X123285649Y-118226692D01*
X123305482Y-118000001D01*
X149694532Y-118000001D01*
X149714364Y-118226686D01*
X149714366Y-118226697D01*
X149773258Y-118446488D01*
X149773261Y-118446497D01*
X149869431Y-118652732D01*
X149869432Y-118652734D01*
X149999954Y-118839141D01*
X150160858Y-119000045D01*
X150160861Y-119000047D01*
X150347266Y-119130568D01*
X150553504Y-119226739D01*
X150773308Y-119285635D01*
X150943216Y-119300500D01*
X151056784Y-119300500D01*
X151226692Y-119285635D01*
X151446496Y-119226739D01*
X151652734Y-119130568D01*
X151839139Y-119000047D01*
X152000047Y-118839139D01*
X152130568Y-118652734D01*
X152226739Y-118446496D01*
X152285635Y-118226692D01*
X152305468Y-118000000D01*
X152285635Y-117773308D01*
X152226739Y-117553504D01*
X152130568Y-117347266D01*
X152000047Y-117160861D01*
X152000045Y-117160858D01*
X151839141Y-116999954D01*
X151652734Y-116869432D01*
X151652732Y-116869431D01*
X151446497Y-116773261D01*
X151446488Y-116773258D01*
X151226697Y-116714366D01*
X151226687Y-116714364D01*
X151056784Y-116699500D01*
X150943216Y-116699500D01*
X150773312Y-116714364D01*
X150773302Y-116714366D01*
X150553511Y-116773258D01*
X150553502Y-116773261D01*
X150347267Y-116869431D01*
X150347265Y-116869432D01*
X150160858Y-116999954D01*
X149999954Y-117160858D01*
X149869432Y-117347265D01*
X149869431Y-117347267D01*
X149773261Y-117553502D01*
X149773258Y-117553511D01*
X149714366Y-117773302D01*
X149714364Y-117773313D01*
X149694532Y-117999998D01*
X149694532Y-118000001D01*
X123305482Y-118000001D01*
X123305482Y-118000000D01*
X123285649Y-117773308D01*
X123226753Y-117553504D01*
X123130582Y-117347266D01*
X123000061Y-117160861D01*
X123000059Y-117160858D01*
X122839155Y-116999954D01*
X122652748Y-116869432D01*
X122652746Y-116869431D01*
X122446511Y-116773261D01*
X122446502Y-116773258D01*
X122226711Y-116714366D01*
X122226701Y-116714364D01*
X122056798Y-116699500D01*
X121943230Y-116699500D01*
X121773326Y-116714364D01*
X121773316Y-116714366D01*
X121553525Y-116773258D01*
X121553516Y-116773261D01*
X121347281Y-116869431D01*
X121347279Y-116869432D01*
X121160872Y-116999954D01*
X120999968Y-117160858D01*
X120869446Y-117347265D01*
X120869445Y-117347267D01*
X120773275Y-117553502D01*
X120773272Y-117553511D01*
X120714380Y-117773302D01*
X120714378Y-117773313D01*
X120694546Y-117999998D01*
X120694546Y-118000001D01*
X120025581Y-118000001D01*
X120025514Y-117997949D01*
X120025514Y-113354000D01*
X121253001Y-113354000D01*
X121253001Y-113453154D01*
X121263319Y-113554152D01*
X121317546Y-113717800D01*
X121317551Y-113717811D01*
X121408052Y-113864534D01*
X121408055Y-113864538D01*
X121529961Y-113986444D01*
X121529965Y-113986447D01*
X121676688Y-114076948D01*
X121676699Y-114076953D01*
X121840347Y-114131180D01*
X121941352Y-114141499D01*
X121978000Y-114141499D01*
X121978000Y-113354000D01*
X122477999Y-113354000D01*
X122477999Y-114141498D01*
X122478000Y-114141499D01*
X122514640Y-114141499D01*
X122514654Y-114141498D01*
X122615652Y-114131180D01*
X122779300Y-114076953D01*
X122779311Y-114076948D01*
X122926034Y-113986447D01*
X122926038Y-113986444D01*
X123047944Y-113864538D01*
X123047947Y-113864534D01*
X123138448Y-113717811D01*
X123138453Y-113717800D01*
X123192680Y-113554152D01*
X123202999Y-113453154D01*
X123203000Y-113453141D01*
X123203000Y-113354000D01*
X124563001Y-113354000D01*
X124563001Y-113453154D01*
X124573319Y-113554152D01*
X124627546Y-113717800D01*
X124627551Y-113717811D01*
X124718052Y-113864534D01*
X124718055Y-113864538D01*
X124839961Y-113986444D01*
X124839965Y-113986447D01*
X124986688Y-114076948D01*
X124986699Y-114076953D01*
X125150347Y-114131180D01*
X125251352Y-114141499D01*
X125288000Y-114141499D01*
X125288000Y-113354000D01*
X125787999Y-113354000D01*
X125787999Y-114141498D01*
X125788000Y-114141499D01*
X125824640Y-114141499D01*
X125824654Y-114141498D01*
X125925652Y-114131180D01*
X126089300Y-114076953D01*
X126089311Y-114076948D01*
X126236034Y-113986447D01*
X126236038Y-113986444D01*
X126357944Y-113864538D01*
X126357947Y-113864534D01*
X126448448Y-113717811D01*
X126448453Y-113717800D01*
X126502680Y-113554152D01*
X126512999Y-113453154D01*
X126513000Y-113453141D01*
X126513000Y-113354000D01*
X125787999Y-113354000D01*
X125288000Y-113354000D01*
X124563001Y-113354000D01*
X123203000Y-113354000D01*
X122477999Y-113354000D01*
X121978000Y-113354000D01*
X121253001Y-113354000D01*
X120025514Y-113354000D01*
X120025514Y-106745905D01*
X120045199Y-106678866D01*
X120098003Y-106633111D01*
X120167161Y-106623167D01*
X120230717Y-106652192D01*
X120234398Y-106655513D01*
X120287065Y-106704970D01*
X120308210Y-106726116D01*
X120313799Y-106730452D01*
X120318231Y-106734238D01*
X120352297Y-106766226D01*
X120387692Y-106826467D01*
X120391414Y-106856619D01*
X120391414Y-106948640D01*
X120398754Y-107016898D01*
X120398163Y-107016961D01*
X120400199Y-107049495D01*
X120399914Y-107052142D01*
X120399914Y-107099986D01*
X120422202Y-107122274D01*
X120451633Y-107149674D01*
X120486922Y-107196815D01*
X120490561Y-107201675D01*
X120514978Y-107267140D01*
X120500126Y-107335412D01*
X120450721Y-107384818D01*
X120402868Y-107397031D01*
X120399914Y-107399986D01*
X120399914Y-107447821D01*
X120404097Y-107486734D01*
X120404097Y-107513238D01*
X120399914Y-107552150D01*
X120399914Y-107599986D01*
X121725914Y-107599986D01*
X121792953Y-107619671D01*
X121838708Y-107672475D01*
X121849914Y-107723986D01*
X121849914Y-107775986D01*
X121830229Y-107843025D01*
X121777425Y-107888780D01*
X121725914Y-107899986D01*
X120399914Y-107899986D01*
X120399914Y-107947830D01*
X120406315Y-108007358D01*
X120406317Y-108007365D01*
X120456559Y-108142072D01*
X120456563Y-108142079D01*
X120542723Y-108257173D01*
X120542726Y-108257176D01*
X120657820Y-108343336D01*
X120657827Y-108343340D01*
X120792534Y-108393582D01*
X120792541Y-108393584D01*
X120852069Y-108399985D01*
X120852086Y-108399986D01*
X121330143Y-108399986D01*
X121397182Y-108419671D01*
X121442937Y-108472475D01*
X121452881Y-108541633D01*
X121444704Y-108571438D01*
X121414971Y-108643220D01*
X121414969Y-108643225D01*
X121394332Y-108799984D01*
X121394332Y-108799987D01*
X121414969Y-108956746D01*
X121414970Y-108956748D01*
X121475478Y-109102827D01*
X121571732Y-109228268D01*
X121697173Y-109324522D01*
X121843252Y-109385030D01*
X121960653Y-109400486D01*
X121960660Y-109400486D01*
X122039368Y-109400486D01*
X122039375Y-109400486D01*
X122156776Y-109385030D01*
X122302855Y-109324522D01*
X122428296Y-109228268D01*
X122524550Y-109102827D01*
X122585058Y-108956748D01*
X122605696Y-108799986D01*
X122585058Y-108643224D01*
X122547643Y-108552898D01*
X122540175Y-108483429D01*
X122571450Y-108420950D01*
X122618872Y-108389264D01*
X122742000Y-108343340D01*
X122742007Y-108343336D01*
X122864202Y-108251861D01*
X122865999Y-108254261D01*
X122914142Y-108227974D01*
X122983834Y-108232958D01*
X123039767Y-108274830D01*
X123064184Y-108340294D01*
X123064500Y-108349140D01*
X123064500Y-110349797D01*
X123044815Y-110416836D01*
X122992011Y-110462591D01*
X122922853Y-110472535D01*
X122875403Y-110455335D01*
X122782928Y-110398295D01*
X122782922Y-110398292D01*
X122782920Y-110398291D01*
X122636572Y-110349797D01*
X122617382Y-110343438D01*
X122515214Y-110333000D01*
X121940794Y-110333000D01*
X121940778Y-110333001D01*
X121838617Y-110343438D01*
X121673082Y-110398290D01*
X121673071Y-110398295D01*
X121524657Y-110489839D01*
X121524653Y-110489842D01*
X121401342Y-110613153D01*
X121401339Y-110613157D01*
X121309795Y-110761571D01*
X121309790Y-110761582D01*
X121254938Y-110927117D01*
X121244500Y-111029279D01*
X121244500Y-111728705D01*
X121244501Y-111728721D01*
X121254938Y-111830882D01*
X121309790Y-111996417D01*
X121309795Y-111996428D01*
X121401339Y-112144842D01*
X121401342Y-112144846D01*
X121416325Y-112159829D01*
X121449810Y-112221152D01*
X121444826Y-112290844D01*
X121416329Y-112335188D01*
X121408052Y-112343465D01*
X121317551Y-112490188D01*
X121317546Y-112490199D01*
X121263319Y-112653847D01*
X121253000Y-112754845D01*
X121253000Y-112854000D01*
X123202998Y-112854000D01*
X123202999Y-112754860D01*
X123202998Y-112754845D01*
X123192680Y-112653847D01*
X123138453Y-112490199D01*
X123138448Y-112490188D01*
X123047947Y-112343465D01*
X123047944Y-112343461D01*
X123039674Y-112335191D01*
X123006189Y-112273868D01*
X123011173Y-112204176D01*
X123039674Y-112159829D01*
X123054658Y-112144846D01*
X123054660Y-112144843D01*
X123099959Y-112071403D01*
X123151907Y-112024678D01*
X123205497Y-112012500D01*
X123617970Y-112012500D01*
X123626395Y-112012500D01*
X123649626Y-112014696D01*
X123654143Y-112015557D01*
X123657906Y-112016275D01*
X123715980Y-112012621D01*
X123719853Y-112012500D01*
X124560503Y-112012500D01*
X124627542Y-112032185D01*
X124666041Y-112071403D01*
X124711339Y-112144842D01*
X124711342Y-112144846D01*
X124726325Y-112159829D01*
X124759810Y-112221152D01*
X124754826Y-112290844D01*
X124726329Y-112335188D01*
X124718052Y-112343465D01*
X124627551Y-112490188D01*
X124627546Y-112490199D01*
X124573319Y-112653847D01*
X124563000Y-112754845D01*
X124563000Y-112854000D01*
X126512998Y-112854000D01*
X126512999Y-112754860D01*
X126512998Y-112754845D01*
X126502680Y-112653847D01*
X126448453Y-112490199D01*
X126448448Y-112490188D01*
X126357947Y-112343465D01*
X126357944Y-112343461D01*
X126349674Y-112335191D01*
X126316189Y-112273868D01*
X126321173Y-112204176D01*
X126349674Y-112159829D01*
X126364658Y-112144846D01*
X126364660Y-112144843D01*
X126409959Y-112071403D01*
X126461907Y-112024678D01*
X126515497Y-112012500D01*
X126535366Y-112012500D01*
X126551113Y-112014238D01*
X126551139Y-112013968D01*
X126558905Y-112014701D01*
X126558909Y-112014702D01*
X126628958Y-112012500D01*
X126658856Y-112012500D01*
X126658857Y-112012500D01*
X126660222Y-112012327D01*
X126665862Y-112011614D01*
X126671685Y-112011156D01*
X126697708Y-112010338D01*
X126718890Y-112009673D01*
X126728681Y-112006827D01*
X126738481Y-112003980D01*
X126757538Y-112000032D01*
X126777797Y-111997474D01*
X126821721Y-111980082D01*
X126827221Y-111978199D01*
X126872593Y-111965018D01*
X126890165Y-111954625D01*
X126907632Y-111946068D01*
X126926617Y-111938552D01*
X126964826Y-111910790D01*
X126969704Y-111907585D01*
X127010362Y-111883542D01*
X127024800Y-111869102D01*
X127042749Y-111854250D01*
X127042774Y-111854233D01*
X127109279Y-111832814D01*
X127176807Y-111850750D01*
X127223918Y-111902348D01*
X127236500Y-111956772D01*
X127236500Y-114524176D01*
X127268152Y-114724022D01*
X127309679Y-114851827D01*
X127330680Y-114916461D01*
X127422542Y-115096749D01*
X127541476Y-115260447D01*
X127684553Y-115403524D01*
X127848251Y-115522458D01*
X128028539Y-115614320D01*
X128160471Y-115657187D01*
X128220977Y-115676847D01*
X128420824Y-115708500D01*
X128420829Y-115708500D01*
X128441970Y-115708500D01*
X128680900Y-115708500D01*
X128747939Y-115728185D01*
X128755211Y-115733234D01*
X128778792Y-115750887D01*
X128778793Y-115750888D01*
X128910464Y-115799999D01*
X128915799Y-115801989D01*
X128943050Y-115804918D01*
X128976345Y-115808499D01*
X128976362Y-115808500D01*
X130823638Y-115808500D01*
X130823654Y-115808499D01*
X130850692Y-115805591D01*
X130884201Y-115801989D01*
X130889537Y-115799999D01*
X130906703Y-115793596D01*
X131021204Y-115750889D01*
X131138261Y-115663261D01*
X131225889Y-115546204D01*
X131276989Y-115409201D01*
X131281333Y-115368794D01*
X131283499Y-115348654D01*
X131283500Y-115348637D01*
X131283500Y-115182500D01*
X131303185Y-115115461D01*
X131355989Y-115069706D01*
X131407500Y-115058500D01*
X133477762Y-115058500D01*
X133493509Y-115060238D01*
X133493535Y-115059968D01*
X133501301Y-115060701D01*
X133501305Y-115060702D01*
X133571354Y-115058500D01*
X133601252Y-115058500D01*
X133601253Y-115058500D01*
X133602618Y-115058327D01*
X133608258Y-115057614D01*
X133614081Y-115057156D01*
X133640104Y-115056338D01*
X133661286Y-115055673D01*
X133671077Y-115052827D01*
X133680877Y-115049980D01*
X133699934Y-115046032D01*
X133720193Y-115043474D01*
X133764117Y-115026082D01*
X133769617Y-115024199D01*
X133814989Y-115011018D01*
X133832561Y-115000625D01*
X133850028Y-114992068D01*
X133869013Y-114984552D01*
X133907222Y-114956790D01*
X133912100Y-114953585D01*
X133952758Y-114929542D01*
X133967198Y-114915100D01*
X133981988Y-114902470D01*
X133998503Y-114890472D01*
X134028618Y-114854067D01*
X134032522Y-114849776D01*
X134687322Y-114194977D01*
X134748641Y-114161495D01*
X134818333Y-114166479D01*
X134862680Y-114194980D01*
X135481514Y-114813814D01*
X135491420Y-114826178D01*
X135491630Y-114826005D01*
X135496605Y-114832019D01*
X135547698Y-114879999D01*
X135563904Y-114896204D01*
X135568834Y-114901134D01*
X135574406Y-114905456D01*
X135578846Y-114909249D01*
X135613282Y-114941586D01*
X135631171Y-114951420D01*
X135647437Y-114962104D01*
X135663563Y-114974613D01*
X135706902Y-114993367D01*
X135712149Y-114995937D01*
X135753544Y-115018695D01*
X135773322Y-115023773D01*
X135791723Y-115030073D01*
X135810459Y-115038181D01*
X135854966Y-115045229D01*
X135857107Y-115045569D01*
X135862816Y-115046751D01*
X135898436Y-115055897D01*
X135958472Y-115091635D01*
X135989656Y-115154160D01*
X135982087Y-115223618D01*
X135938168Y-115277958D01*
X135871842Y-115299927D01*
X135867595Y-115300000D01*
X135725000Y-115300000D01*
X135725000Y-115347844D01*
X135731401Y-115407372D01*
X135731403Y-115407379D01*
X135781645Y-115542086D01*
X135781649Y-115542093D01*
X135867809Y-115657187D01*
X135867812Y-115657190D01*
X135982906Y-115743350D01*
X135982913Y-115743354D01*
X136117620Y-115793596D01*
X136117627Y-115793598D01*
X136177155Y-115799999D01*
X136177172Y-115800000D01*
X136875000Y-115800000D01*
X136875000Y-115282500D01*
X136894685Y-115215461D01*
X136947489Y-115169706D01*
X136999000Y-115158500D01*
X137201000Y-115158500D01*
X137268039Y-115178185D01*
X137313794Y-115230989D01*
X137325000Y-115282500D01*
X137325000Y-115800000D01*
X138022828Y-115800000D01*
X138022844Y-115799999D01*
X138082372Y-115793598D01*
X138082379Y-115793596D01*
X138217086Y-115743354D01*
X138217093Y-115743350D01*
X138332187Y-115657190D01*
X138332190Y-115657187D01*
X138418350Y-115542093D01*
X138418354Y-115542086D01*
X138468596Y-115407379D01*
X138468598Y-115407372D01*
X138474999Y-115347844D01*
X138475000Y-115347827D01*
X138475000Y-115300000D01*
X138327783Y-115300000D01*
X138260744Y-115280315D01*
X138214989Y-115227511D01*
X138205045Y-115158353D01*
X138234070Y-115094797D01*
X138253469Y-115076735D01*
X138338261Y-115013261D01*
X138423280Y-114899688D01*
X138439733Y-114887371D01*
X138438681Y-114886319D01*
X138475000Y-114850000D01*
X138475000Y-114802178D01*
X138474999Y-114802171D01*
X138474717Y-114799545D01*
X138476753Y-114766977D01*
X138476160Y-114766914D01*
X138483499Y-114698654D01*
X138483500Y-114698637D01*
X138483500Y-114151362D01*
X138483498Y-114151343D01*
X138479404Y-114113255D01*
X138479404Y-114086745D01*
X138483498Y-114048656D01*
X138483500Y-114048637D01*
X138483500Y-113882500D01*
X138503185Y-113815461D01*
X138555989Y-113769706D01*
X138607500Y-113758500D01*
X139275002Y-113758500D01*
X139275079Y-113758504D01*
X139278873Y-113758503D01*
X139278878Y-113758505D01*
X139311230Y-113758502D01*
X139378268Y-113778182D01*
X139398917Y-113794821D01*
X140053378Y-114449282D01*
X140086863Y-114510605D01*
X140089018Y-114524001D01*
X140096992Y-114599868D01*
X140106458Y-114689928D01*
X140106459Y-114689931D01*
X140165470Y-114871549D01*
X140165473Y-114871556D01*
X140260960Y-115036944D01*
X140388747Y-115178866D01*
X140543248Y-115291118D01*
X140717712Y-115368794D01*
X140904513Y-115408500D01*
X141095487Y-115408500D01*
X141282288Y-115368794D01*
X141456752Y-115291118D01*
X141611253Y-115178866D01*
X141615159Y-115174527D01*
X141674646Y-115137879D01*
X141707309Y-115133500D01*
X143136054Y-115133500D01*
X143203093Y-115153185D01*
X143241593Y-115192404D01*
X143248341Y-115203345D01*
X143371653Y-115326657D01*
X143371657Y-115326660D01*
X143520071Y-115418204D01*
X143520074Y-115418205D01*
X143520080Y-115418209D01*
X143685619Y-115473062D01*
X143787787Y-115483500D01*
X144387212Y-115483499D01*
X144489381Y-115473062D01*
X144654920Y-115418209D01*
X144803346Y-115326658D01*
X144918332Y-115211671D01*
X144979651Y-115178189D01*
X145049343Y-115183173D01*
X145093691Y-115211674D01*
X145201961Y-115319944D01*
X145201965Y-115319947D01*
X145348688Y-115410448D01*
X145348699Y-115410453D01*
X145512347Y-115464680D01*
X145613351Y-115474999D01*
X145662499Y-115474998D01*
X145662500Y-115474998D01*
X145662500Y-114750000D01*
X146162500Y-114750000D01*
X146162500Y-115474999D01*
X146211640Y-115474999D01*
X146211654Y-115474998D01*
X146312652Y-115464680D01*
X146476300Y-115410453D01*
X146476311Y-115410448D01*
X146623034Y-115319947D01*
X146623038Y-115319944D01*
X146744944Y-115198038D01*
X146744947Y-115198034D01*
X146835448Y-115051311D01*
X146835453Y-115051300D01*
X146889680Y-114887652D01*
X146899999Y-114786654D01*
X146900000Y-114786641D01*
X146900000Y-114750000D01*
X146162500Y-114750000D01*
X145662500Y-114750000D01*
X145662500Y-114374000D01*
X145682185Y-114306961D01*
X145734989Y-114261206D01*
X145786500Y-114250000D01*
X146847337Y-114250000D01*
X146912434Y-114268462D01*
X147020079Y-114334859D01*
X147020082Y-114334860D01*
X147053937Y-114346078D01*
X147185619Y-114389712D01*
X147287787Y-114400150D01*
X147887212Y-114400149D01*
X147989381Y-114389712D01*
X148154920Y-114334859D01*
X148303346Y-114243308D01*
X148418332Y-114128321D01*
X148479651Y-114094839D01*
X148549343Y-114099823D01*
X148593691Y-114128324D01*
X148701961Y-114236594D01*
X148701965Y-114236597D01*
X148848688Y-114327098D01*
X148848699Y-114327103D01*
X149012347Y-114381330D01*
X149113351Y-114391649D01*
X149162499Y-114391648D01*
X149162500Y-114391648D01*
X149162500Y-113666650D01*
X149662500Y-113666650D01*
X149662500Y-114391649D01*
X149711640Y-114391649D01*
X149711654Y-114391648D01*
X149812652Y-114381330D01*
X149976300Y-114327103D01*
X149976311Y-114327098D01*
X150123034Y-114236597D01*
X150123038Y-114236594D01*
X150244944Y-114114688D01*
X150244947Y-114114684D01*
X150335448Y-113967961D01*
X150335453Y-113967950D01*
X150389680Y-113804302D01*
X150399999Y-113703304D01*
X150400000Y-113703291D01*
X150400000Y-113666650D01*
X149662500Y-113666650D01*
X149162500Y-113666650D01*
X149162500Y-112441650D01*
X149662500Y-112441650D01*
X149662500Y-113166650D01*
X150399999Y-113166650D01*
X150399999Y-113130010D01*
X150399998Y-113129995D01*
X150389680Y-113028997D01*
X150335453Y-112865349D01*
X150335448Y-112865338D01*
X150244947Y-112718615D01*
X150244944Y-112718611D01*
X150123038Y-112596705D01*
X150123034Y-112596702D01*
X149976311Y-112506201D01*
X149976300Y-112506196D01*
X149812652Y-112451969D01*
X149711654Y-112441650D01*
X149662500Y-112441650D01*
X149162500Y-112441650D01*
X149162499Y-112441649D01*
X149113361Y-112441650D01*
X149113343Y-112441651D01*
X149012347Y-112451969D01*
X148848699Y-112506196D01*
X148848688Y-112506201D01*
X148701965Y-112596702D01*
X148593691Y-112704976D01*
X148532368Y-112738460D01*
X148462676Y-112733476D01*
X148418329Y-112704975D01*
X148303346Y-112589992D01*
X148303342Y-112589989D01*
X148154928Y-112498445D01*
X148154922Y-112498442D01*
X148154920Y-112498441D01*
X148130014Y-112490188D01*
X147989382Y-112443588D01*
X147913593Y-112435845D01*
X147848901Y-112409449D01*
X147808750Y-112352268D01*
X147805887Y-112282457D01*
X147841221Y-112222180D01*
X147903534Y-112190575D01*
X147913594Y-112189129D01*
X147916363Y-112188846D01*
X147989381Y-112181387D01*
X148154920Y-112126534D01*
X148303346Y-112034983D01*
X148418332Y-111919996D01*
X148479651Y-111886514D01*
X148549343Y-111891498D01*
X148593691Y-111919999D01*
X148701961Y-112028269D01*
X148701965Y-112028272D01*
X148848688Y-112118773D01*
X148848699Y-112118778D01*
X149012347Y-112173005D01*
X149113351Y-112183324D01*
X149162499Y-112183323D01*
X149162500Y-112183323D01*
X149162500Y-111458325D01*
X149662500Y-111458325D01*
X149662500Y-112183324D01*
X149711640Y-112183324D01*
X149711654Y-112183323D01*
X149812652Y-112173005D01*
X149976300Y-112118778D01*
X149976311Y-112118773D01*
X150123034Y-112028272D01*
X150123038Y-112028269D01*
X150244944Y-111906363D01*
X150244947Y-111906359D01*
X150335448Y-111759636D01*
X150335453Y-111759625D01*
X150389680Y-111595977D01*
X150399999Y-111494979D01*
X150400000Y-111494966D01*
X150400000Y-111458325D01*
X149662500Y-111458325D01*
X149162500Y-111458325D01*
X149162500Y-110233325D01*
X149662500Y-110233325D01*
X149662500Y-110958325D01*
X150399999Y-110958325D01*
X150399999Y-110921685D01*
X150399998Y-110921670D01*
X150389680Y-110820672D01*
X150335453Y-110657024D01*
X150335448Y-110657013D01*
X150244947Y-110510290D01*
X150244944Y-110510286D01*
X150123038Y-110388380D01*
X150123034Y-110388377D01*
X149976311Y-110297876D01*
X149976300Y-110297871D01*
X149812652Y-110243644D01*
X149711654Y-110233325D01*
X149662500Y-110233325D01*
X149162500Y-110233325D01*
X149162499Y-110233324D01*
X149113361Y-110233325D01*
X149113343Y-110233326D01*
X149012347Y-110243644D01*
X148848699Y-110297871D01*
X148848688Y-110297876D01*
X148701965Y-110388377D01*
X148593691Y-110496651D01*
X148532368Y-110530135D01*
X148462676Y-110525151D01*
X148418329Y-110496650D01*
X148303346Y-110381667D01*
X148303342Y-110381664D01*
X148154928Y-110290120D01*
X148154922Y-110290117D01*
X148154920Y-110290116D01*
X148154896Y-110290108D01*
X147989382Y-110235263D01*
X147887214Y-110224825D01*
X147287794Y-110224825D01*
X147287778Y-110224826D01*
X147185615Y-110235263D01*
X147020099Y-110290108D01*
X146950270Y-110292509D01*
X146904961Y-110266668D01*
X145786500Y-110266668D01*
X145719461Y-110246983D01*
X145673706Y-110194179D01*
X145662500Y-110142668D01*
X145662500Y-109890668D01*
X145682185Y-109823629D01*
X145734989Y-109777874D01*
X145786500Y-109766668D01*
X146847285Y-109766668D01*
X146912382Y-109785130D01*
X147020079Y-109851559D01*
X147020082Y-109851560D01*
X147160323Y-109898030D01*
X147185619Y-109906412D01*
X147287787Y-109916850D01*
X147887212Y-109916849D01*
X147989381Y-109906412D01*
X148154920Y-109851559D01*
X148303346Y-109760008D01*
X148418332Y-109645021D01*
X148479651Y-109611539D01*
X148549343Y-109616523D01*
X148593691Y-109645024D01*
X148701961Y-109753294D01*
X148701965Y-109753297D01*
X148848688Y-109843798D01*
X148848699Y-109843803D01*
X149012347Y-109898030D01*
X149113351Y-109908349D01*
X149162499Y-109908348D01*
X149162500Y-109908348D01*
X149162500Y-109183350D01*
X149662500Y-109183350D01*
X149662500Y-109908349D01*
X149711640Y-109908349D01*
X149711654Y-109908348D01*
X149812652Y-109898030D01*
X149976300Y-109843803D01*
X149976311Y-109843798D01*
X150123034Y-109753297D01*
X150123038Y-109753294D01*
X150244944Y-109631388D01*
X150244947Y-109631384D01*
X150335448Y-109484661D01*
X150335453Y-109484650D01*
X150389680Y-109321002D01*
X150399999Y-109220004D01*
X150400000Y-109219991D01*
X150400000Y-109183350D01*
X149662500Y-109183350D01*
X149162500Y-109183350D01*
X149162500Y-107958350D01*
X149662500Y-107958350D01*
X149662500Y-108683350D01*
X150399999Y-108683350D01*
X150399999Y-108646710D01*
X150399998Y-108646695D01*
X150389680Y-108545697D01*
X150335453Y-108382049D01*
X150335448Y-108382038D01*
X150244947Y-108235315D01*
X150244944Y-108235311D01*
X150123038Y-108113405D01*
X150123034Y-108113402D01*
X149976311Y-108022901D01*
X149976300Y-108022896D01*
X149812652Y-107968669D01*
X149711654Y-107958350D01*
X149662500Y-107958350D01*
X149162500Y-107958350D01*
X149162499Y-107958349D01*
X149113361Y-107958350D01*
X149113343Y-107958351D01*
X149012347Y-107968669D01*
X148848699Y-108022896D01*
X148848688Y-108022901D01*
X148701965Y-108113402D01*
X148593691Y-108221676D01*
X148532368Y-108255160D01*
X148462676Y-108250176D01*
X148418329Y-108221675D01*
X148303346Y-108106692D01*
X148303342Y-108106689D01*
X148154928Y-108015145D01*
X148154922Y-108015142D01*
X148154920Y-108015141D01*
X148036798Y-107976000D01*
X147989382Y-107960288D01*
X147887214Y-107949850D01*
X147287794Y-107949850D01*
X147287778Y-107949851D01*
X147185616Y-107960288D01*
X147020082Y-108015139D01*
X147020079Y-108015140D01*
X146912434Y-108081538D01*
X146847337Y-108100000D01*
X145786500Y-108100000D01*
X145719461Y-108080315D01*
X145673706Y-108027511D01*
X145662500Y-107976000D01*
X145662500Y-106875000D01*
X146162500Y-106875000D01*
X146162500Y-107600000D01*
X146899999Y-107600000D01*
X146899999Y-107563360D01*
X146899998Y-107563345D01*
X146889680Y-107462347D01*
X146835453Y-107298699D01*
X146835448Y-107298688D01*
X146744947Y-107151965D01*
X146744944Y-107151961D01*
X146623038Y-107030055D01*
X146623034Y-107030052D01*
X146476311Y-106939551D01*
X146476300Y-106939546D01*
X146312652Y-106885319D01*
X146211654Y-106875000D01*
X146162500Y-106875000D01*
X145662500Y-106875000D01*
X145662499Y-106874999D01*
X145613361Y-106875000D01*
X145613343Y-106875001D01*
X145512347Y-106885319D01*
X145348699Y-106939546D01*
X145348688Y-106939551D01*
X145201965Y-107030052D01*
X145093691Y-107138326D01*
X145032368Y-107171810D01*
X144962676Y-107166826D01*
X144918329Y-107138325D01*
X144803346Y-107023342D01*
X144803342Y-107023339D01*
X144654928Y-106931795D01*
X144654922Y-106931792D01*
X144654920Y-106931791D01*
X144648006Y-106929500D01*
X144489382Y-106876938D01*
X144387214Y-106866500D01*
X143787794Y-106866500D01*
X143787778Y-106866501D01*
X143685617Y-106876938D01*
X143520082Y-106931790D01*
X143520071Y-106931795D01*
X143371657Y-107023339D01*
X143371653Y-107023342D01*
X143248341Y-107146654D01*
X143241593Y-107157596D01*
X143189646Y-107204321D01*
X143136054Y-107216500D01*
X141707309Y-107216500D01*
X141640270Y-107196815D01*
X141615160Y-107175473D01*
X141611254Y-107171135D01*
X141605324Y-107166826D01*
X141456752Y-107058882D01*
X141282288Y-106981206D01*
X141282286Y-106981205D01*
X141095487Y-106941500D01*
X140904513Y-106941500D01*
X140717714Y-106981205D01*
X140717711Y-106981206D01*
X140717712Y-106981206D01*
X140558387Y-107052142D01*
X140543246Y-107058883D01*
X140388745Y-107171135D01*
X140260959Y-107313057D01*
X140165473Y-107478443D01*
X140165470Y-107478450D01*
X140109288Y-107651362D01*
X140106458Y-107660072D01*
X140094275Y-107775986D01*
X140089019Y-107825995D01*
X140062434Y-107890609D01*
X140053379Y-107900714D01*
X139398916Y-108555178D01*
X139337593Y-108588663D01*
X139311229Y-108591497D01*
X139300594Y-108591496D01*
X139278878Y-108591495D01*
X139278877Y-108591495D01*
X139275081Y-108591495D01*
X139275002Y-108591500D01*
X138607500Y-108591500D01*
X138540461Y-108571815D01*
X138494706Y-108519011D01*
X138483500Y-108467500D01*
X138483500Y-108301362D01*
X138483499Y-108301345D01*
X138479403Y-108263250D01*
X138479403Y-108236744D01*
X138483500Y-108198638D01*
X138483500Y-107651362D01*
X138483499Y-107651345D01*
X138477978Y-107600000D01*
X138476989Y-107590799D01*
X138466541Y-107562788D01*
X138438174Y-107486734D01*
X138425889Y-107453796D01*
X138338261Y-107336739D01*
X138221204Y-107249111D01*
X138221204Y-107249110D01*
X138084203Y-107198011D01*
X138023654Y-107191500D01*
X138023638Y-107191500D01*
X137859253Y-107191500D01*
X137792214Y-107171815D01*
X137746459Y-107119011D01*
X137737293Y-107064658D01*
X137735947Y-107064701D01*
X137733500Y-106986840D01*
X137733500Y-106956959D01*
X137733500Y-106956956D01*
X137732614Y-106949953D01*
X137732157Y-106944134D01*
X137732013Y-106939546D01*
X137730674Y-106896923D01*
X137724976Y-106877311D01*
X137721033Y-106858278D01*
X137718474Y-106838015D01*
X137701085Y-106794098D01*
X137699196Y-106788578D01*
X137686018Y-106743219D01*
X137675626Y-106725647D01*
X137667066Y-106708174D01*
X137659552Y-106689195D01*
X137631794Y-106650991D01*
X137628587Y-106646108D01*
X137618873Y-106629683D01*
X137604542Y-106605450D01*
X137590108Y-106591016D01*
X137577471Y-106576221D01*
X137565472Y-106559705D01*
X137565470Y-106559702D01*
X137529073Y-106529593D01*
X137524751Y-106525659D01*
X132372223Y-101373130D01*
X132338738Y-101311807D01*
X132343722Y-101242115D01*
X132385594Y-101186182D01*
X132409464Y-101172171D01*
X132456752Y-101151118D01*
X132611253Y-101038866D01*
X132739040Y-100896944D01*
X132834527Y-100731556D01*
X132882068Y-100585238D01*
X132921506Y-100527562D01*
X132985865Y-100500364D01*
X133054711Y-100512279D01*
X133106187Y-100559523D01*
X133117931Y-100585238D01*
X133165470Y-100731549D01*
X133165473Y-100731556D01*
X133260960Y-100896944D01*
X133388747Y-101038866D01*
X133543248Y-101151118D01*
X133717712Y-101228794D01*
X133904513Y-101268500D01*
X134095487Y-101268500D01*
X134095487Y-101268499D01*
X134282288Y-101228794D01*
X134445637Y-101156066D01*
X134514883Y-101146783D01*
X134546499Y-101156065D01*
X134717712Y-101232294D01*
X134904513Y-101272000D01*
X135095487Y-101272000D01*
X135282288Y-101232294D01*
X135449567Y-101157816D01*
X135518815Y-101148533D01*
X135550429Y-101157815D01*
X135717712Y-101232294D01*
X135904513Y-101272000D01*
X136095487Y-101272000D01*
X136282288Y-101232294D01*
X136456752Y-101154618D01*
X136611253Y-101042366D01*
X136611258Y-101042361D01*
X136637670Y-101013028D01*
X136697157Y-100976379D01*
X136729820Y-100972000D01*
X137023873Y-100972000D01*
X137090912Y-100991685D01*
X137136667Y-101044489D01*
X137146611Y-101113647D01*
X137117586Y-101177203D01*
X137111554Y-101183681D01*
X137039268Y-101255966D01*
X136860099Y-101480638D01*
X136707211Y-101723957D01*
X136582531Y-101982858D01*
X136487623Y-102254088D01*
X136487619Y-102254100D01*
X136423675Y-102534260D01*
X136423673Y-102534272D01*
X136391500Y-102819813D01*
X136391500Y-103470477D01*
X136371815Y-103537516D01*
X136359650Y-103553449D01*
X136260959Y-103663057D01*
X136165473Y-103828443D01*
X136165470Y-103828450D01*
X136106459Y-104010068D01*
X136106458Y-104010072D01*
X136086496Y-104200000D01*
X136106458Y-104389928D01*
X136106459Y-104389931D01*
X136165470Y-104571549D01*
X136165473Y-104571556D01*
X136260960Y-104736944D01*
X136388747Y-104878866D01*
X136543248Y-104991118D01*
X136717712Y-105068794D01*
X136904513Y-105108500D01*
X137095487Y-105108500D01*
X137282288Y-105068794D01*
X137449567Y-104994316D01*
X137518815Y-104985033D01*
X137550429Y-104994315D01*
X137717712Y-105068794D01*
X137904513Y-105108500D01*
X138095487Y-105108500D01*
X138282288Y-105068794D01*
X138449567Y-104994316D01*
X138518815Y-104985033D01*
X138550429Y-104994315D01*
X138717712Y-105068794D01*
X138904513Y-105108500D01*
X139095487Y-105108500D01*
X139282288Y-105068794D01*
X139449567Y-104994316D01*
X139518815Y-104985033D01*
X139550429Y-104994315D01*
X139717712Y-105068794D01*
X139904513Y-105108500D01*
X140095487Y-105108500D01*
X140282288Y-105068794D01*
X140456752Y-104991118D01*
X140611253Y-104878866D01*
X140739040Y-104736944D01*
X140834527Y-104571556D01*
X140893542Y-104389928D01*
X140913504Y-104200000D01*
X140893542Y-104010072D01*
X140834527Y-103828444D01*
X140793855Y-103757999D01*
X140777383Y-103690100D01*
X140800236Y-103624073D01*
X140855157Y-103580882D01*
X140901243Y-103572000D01*
X141205355Y-103572000D01*
X141205357Y-103572000D01*
X141429233Y-103553449D01*
X141630616Y-103536762D01*
X141630617Y-103536762D01*
X141946284Y-103484085D01*
X142051508Y-103466527D01*
X142465165Y-103361775D01*
X142465167Y-103361774D01*
X142465172Y-103361773D01*
X142868765Y-103223219D01*
X143259535Y-103051811D01*
X143259534Y-103051811D01*
X143634818Y-102848717D01*
X143992050Y-102615326D01*
X143992051Y-102615325D01*
X144096203Y-102534260D01*
X144328785Y-102353234D01*
X144642729Y-102064229D01*
X144931734Y-101750285D01*
X145193828Y-101413547D01*
X145427218Y-101056316D01*
X145433619Y-101044489D01*
X145630311Y-100681034D01*
X145630311Y-100681035D01*
X145801719Y-100290265D01*
X145940273Y-99886672D01*
X146022149Y-99563350D01*
X146045027Y-99473008D01*
X146094898Y-99174149D01*
X146115262Y-99052117D01*
X146115262Y-99052116D01*
X146140222Y-98750888D01*
X146150500Y-98626857D01*
X146150500Y-98413500D01*
X146150500Y-98339615D01*
X146150500Y-98035115D01*
X146150500Y-98035114D01*
X146150500Y-97861643D01*
X146128135Y-97591734D01*
X146115262Y-97436384D01*
X146115262Y-97436383D01*
X146051773Y-97055920D01*
X146045027Y-97015492D01*
X145940275Y-96601835D01*
X145920927Y-96545477D01*
X145801719Y-96198235D01*
X145630311Y-95807465D01*
X145630311Y-95807466D01*
X145427217Y-95432182D01*
X145193826Y-95074950D01*
X145193825Y-95074949D01*
X145011672Y-94840919D01*
X144931734Y-94738215D01*
X144642729Y-94424271D01*
X144328785Y-94135266D01*
X144150206Y-93996272D01*
X144109394Y-93939563D01*
X144105719Y-93869790D01*
X144140350Y-93809107D01*
X144153471Y-93798112D01*
X144221253Y-93748866D01*
X144349040Y-93606944D01*
X144444527Y-93441556D01*
X144503542Y-93259928D01*
X144523504Y-93070000D01*
X144503542Y-92880072D01*
X144444527Y-92698444D01*
X144412317Y-92642656D01*
X144395846Y-92574761D01*
X144418698Y-92508734D01*
X144432023Y-92492980D01*
X144436658Y-92488346D01*
X144436661Y-92488342D01*
X144528204Y-92339928D01*
X144528203Y-92339928D01*
X144528209Y-92339920D01*
X144583062Y-92174381D01*
X144593500Y-92072213D01*
X144593499Y-91372788D01*
X144583062Y-91270619D01*
X144528209Y-91105080D01*
X144528205Y-91105074D01*
X144528204Y-91105071D01*
X144436660Y-90956657D01*
X144436657Y-90956653D01*
X144427685Y-90947681D01*
X144394200Y-90886358D01*
X144399184Y-90816666D01*
X144427685Y-90772319D01*
X144427684Y-90772319D01*
X144436658Y-90763346D01*
X144528209Y-90614920D01*
X144583062Y-90449381D01*
X144593500Y-90347213D01*
X144593499Y-89647788D01*
X144583062Y-89545619D01*
X144528209Y-89380080D01*
X144528205Y-89380074D01*
X144528204Y-89380071D01*
X144436660Y-89231657D01*
X144436657Y-89231653D01*
X144313346Y-89108342D01*
X144313342Y-89108339D01*
X144164928Y-89016795D01*
X144164922Y-89016792D01*
X144164920Y-89016791D01*
X144114208Y-88999987D01*
X149694532Y-88999987D01*
X149714364Y-89226672D01*
X149714366Y-89226683D01*
X149773258Y-89446474D01*
X149773261Y-89446483D01*
X149869431Y-89652718D01*
X149869432Y-89652720D01*
X149999954Y-89839127D01*
X150160858Y-90000031D01*
X150160861Y-90000033D01*
X150347266Y-90130554D01*
X150553504Y-90226725D01*
X150773308Y-90285621D01*
X150943216Y-90300486D01*
X151056784Y-90300486D01*
X151226692Y-90285621D01*
X151446496Y-90226725D01*
X151652734Y-90130554D01*
X151839139Y-90000033D01*
X152000047Y-89839125D01*
X152130568Y-89652720D01*
X152226739Y-89446482D01*
X152285635Y-89226678D01*
X152305468Y-88999986D01*
X152285635Y-88773294D01*
X152226739Y-88553490D01*
X152130568Y-88347252D01*
X152000047Y-88160847D01*
X152000045Y-88160844D01*
X151839141Y-87999940D01*
X151652734Y-87869418D01*
X151652732Y-87869417D01*
X151446497Y-87773247D01*
X151446488Y-87773244D01*
X151226697Y-87714352D01*
X151226687Y-87714350D01*
X151056784Y-87699486D01*
X150943216Y-87699486D01*
X150773312Y-87714350D01*
X150773302Y-87714352D01*
X150553511Y-87773244D01*
X150553502Y-87773247D01*
X150347267Y-87869417D01*
X150347265Y-87869418D01*
X150160858Y-87999940D01*
X149999954Y-88160844D01*
X149869432Y-88347251D01*
X149869431Y-88347253D01*
X149773261Y-88553488D01*
X149773258Y-88553497D01*
X149714366Y-88773288D01*
X149714364Y-88773299D01*
X149694532Y-88999984D01*
X149694532Y-88999987D01*
X144114208Y-88999987D01*
X144114196Y-88999983D01*
X143999382Y-88961938D01*
X143897220Y-88951500D01*
X143897213Y-88951500D01*
X143482509Y-88951500D01*
X143415470Y-88931815D01*
X143407022Y-88925875D01*
X143323024Y-88861420D01*
X143323014Y-88861413D01*
X143103527Y-88734688D01*
X143103525Y-88734687D01*
X142869364Y-88637691D01*
X142869361Y-88637690D01*
X142869356Y-88637688D01*
X142624556Y-88572090D01*
X142624547Y-88572088D01*
X142624546Y-88572088D01*
X142624543Y-88572087D01*
X142624540Y-88572087D01*
X142373260Y-88539001D01*
X142330732Y-88539001D01*
X142330714Y-88539000D01*
X142326552Y-88539000D01*
X142246533Y-88539000D01*
X142169612Y-88538999D01*
X142169611Y-88538999D01*
X142165872Y-88538999D01*
X142165857Y-88539000D01*
X134036826Y-88539000D01*
X133969787Y-88519315D01*
X133944677Y-88497973D01*
X133940771Y-88493635D01*
X133939818Y-88492942D01*
X133786269Y-88381382D01*
X133611805Y-88303706D01*
X133611803Y-88303705D01*
X133425004Y-88264000D01*
X133234030Y-88264000D01*
X133047231Y-88303705D01*
X132872763Y-88381383D01*
X132718262Y-88493635D01*
X132714357Y-88497973D01*
X132654871Y-88534621D01*
X132622208Y-88539000D01*
X125698528Y-88539000D01*
X125621607Y-88539000D01*
X125432025Y-88539000D01*
X125346145Y-88546957D01*
X125054485Y-88573982D01*
X125054484Y-88573983D01*
X125054480Y-88573983D01*
X125054477Y-88573984D01*
X124681767Y-88643655D01*
X124681761Y-88643656D01*
X124681759Y-88643657D01*
X124317079Y-88747417D01*
X123963514Y-88884388D01*
X123624099Y-89053396D01*
X123624092Y-89053401D01*
X123492663Y-89134778D01*
X123425302Y-89153333D01*
X123358603Y-89132525D01*
X123313742Y-89078960D01*
X123303858Y-89018543D01*
X123305482Y-88999986D01*
X123285649Y-88773294D01*
X123226753Y-88553490D01*
X123130582Y-88347252D01*
X123000061Y-88160847D01*
X123000059Y-88160844D01*
X122839155Y-87999940D01*
X122652748Y-87869418D01*
X122652746Y-87869417D01*
X122446511Y-87773247D01*
X122446502Y-87773244D01*
X122226711Y-87714352D01*
X122226701Y-87714350D01*
X122056798Y-87699486D01*
X121943230Y-87699486D01*
X121773326Y-87714350D01*
X121773316Y-87714352D01*
X121553525Y-87773244D01*
X121553516Y-87773247D01*
X121347281Y-87869417D01*
X121347279Y-87869418D01*
X121160872Y-87999940D01*
X120999968Y-88160844D01*
X120869446Y-88347251D01*
X120869445Y-88347253D01*
X120773275Y-88553488D01*
X120773272Y-88553497D01*
X120714380Y-88773288D01*
X120714378Y-88773299D01*
X120694546Y-88999984D01*
X120694546Y-88999987D01*
X120714378Y-89226672D01*
X120714380Y-89226683D01*
X120773272Y-89446474D01*
X120773275Y-89446483D01*
X120869445Y-89652718D01*
X120869446Y-89652720D01*
X120999968Y-89839127D01*
X121160872Y-90000031D01*
X121160875Y-90000033D01*
X121347280Y-90130554D01*
X121553518Y-90226725D01*
X121773322Y-90285621D01*
X121943230Y-90300486D01*
X122024292Y-90300486D01*
X122091331Y-90320171D01*
X122137086Y-90372975D01*
X122147030Y-90442133D01*
X122129719Y-90489763D01*
X122035400Y-90642092D01*
X122035396Y-90642099D01*
X121866388Y-90981514D01*
X121729417Y-91335079D01*
X121627811Y-91692189D01*
X121625655Y-91699767D01*
X121556032Y-92072220D01*
X121555983Y-92072484D01*
X121555982Y-92072485D01*
X121536130Y-92286739D01*
X121521003Y-92450000D01*
X121521000Y-92450028D01*
X121521000Y-93203960D01*
X121520701Y-93210042D01*
X121509388Y-93324886D01*
X121504645Y-93348726D01*
X121473807Y-93450379D01*
X121464505Y-93472836D01*
X121414426Y-93566525D01*
X121400920Y-93586737D01*
X121327612Y-93676060D01*
X121323524Y-93680570D01*
X120299435Y-94704658D01*
X120299093Y-94705021D01*
X120237194Y-94766920D01*
X120175870Y-94800404D01*
X120106178Y-94795419D01*
X120050245Y-94753548D01*
X120025829Y-94688083D01*
X120025513Y-94679238D01*
X120025513Y-92036319D01*
X120025513Y-89001979D01*
X120025644Y-88997991D01*
X120042142Y-88746310D01*
X120043201Y-88738275D01*
X120063210Y-88637691D01*
X120092004Y-88492937D01*
X120094101Y-88485108D01*
X120174512Y-88248232D01*
X120177616Y-88240738D01*
X120288254Y-88016391D01*
X120292307Y-88009368D01*
X120431296Y-87801360D01*
X120436213Y-87794952D01*
X120601163Y-87606866D01*
X120606894Y-87601137D01*
X120752003Y-87473882D01*
X120794964Y-87436206D01*
X120801401Y-87431268D01*
X120816498Y-87421180D01*
X121009396Y-87292291D01*
X121016409Y-87288242D01*
X121240773Y-87177601D01*
X121248243Y-87174506D01*
X121485133Y-87094094D01*
X121492950Y-87091998D01*
X121692908Y-87052226D01*
X121738301Y-87043198D01*
X121746349Y-87042138D01*
X121789136Y-87039333D01*
X121998416Y-87025619D01*
X122002471Y-87025486D01*
X122008299Y-87025486D01*
X150991728Y-87025486D01*
X150997990Y-87025486D01*
X151002038Y-87025618D01*
G37*
%TD.AperFunction*%
%TA.AperFunction,Conductor*%
G36*
X133064452Y-105809730D02*
G01*
X133097422Y-105833326D01*
X133880180Y-106616084D01*
X133913665Y-106677407D01*
X133916499Y-106703765D01*
X133916499Y-113122629D01*
X133896814Y-113189668D01*
X133880180Y-113210310D01*
X133335310Y-113755181D01*
X133273987Y-113788666D01*
X133247629Y-113791500D01*
X131399000Y-113791500D01*
X131331961Y-113771815D01*
X131286206Y-113719011D01*
X131275000Y-113667500D01*
X131275000Y-113502178D01*
X131274999Y-113502171D01*
X131274717Y-113499545D01*
X131276753Y-113466977D01*
X131276160Y-113466914D01*
X131283499Y-113398654D01*
X131283500Y-113398637D01*
X131283500Y-112851362D01*
X131283498Y-112851343D01*
X131279404Y-112813255D01*
X131279404Y-112786745D01*
X131283498Y-112748656D01*
X131283500Y-112748637D01*
X131283500Y-112201362D01*
X131283498Y-112201343D01*
X131279404Y-112163255D01*
X131279404Y-112136745D01*
X131283498Y-112098656D01*
X131283500Y-112098637D01*
X131283500Y-111551362D01*
X131283498Y-111551343D01*
X131279404Y-111513255D01*
X131279404Y-111486745D01*
X131283498Y-111448656D01*
X131283500Y-111448637D01*
X131283500Y-110901362D01*
X131283499Y-110901345D01*
X131279403Y-110863250D01*
X131279403Y-110836744D01*
X131283500Y-110798638D01*
X131283500Y-110251362D01*
X131282670Y-110243644D01*
X131279404Y-110213255D01*
X131279404Y-110186745D01*
X131283498Y-110148656D01*
X131283500Y-110148637D01*
X131283500Y-109601362D01*
X131283498Y-109601343D01*
X131279404Y-109563255D01*
X131279404Y-109536745D01*
X131283498Y-109498656D01*
X131283500Y-109498637D01*
X131283500Y-108951362D01*
X131283498Y-108951343D01*
X131279404Y-108913255D01*
X131279404Y-108886745D01*
X131283498Y-108848656D01*
X131283500Y-108848637D01*
X131283500Y-108301362D01*
X131283499Y-108301345D01*
X131279403Y-108263250D01*
X131279403Y-108236744D01*
X131283500Y-108198638D01*
X131283500Y-107651362D01*
X131283499Y-107651345D01*
X131277978Y-107600000D01*
X131276989Y-107590799D01*
X131266541Y-107562788D01*
X131238174Y-107486734D01*
X131225889Y-107453796D01*
X131138261Y-107336739D01*
X131021204Y-107249111D01*
X130879498Y-107196256D01*
X130823565Y-107154384D01*
X130799149Y-107088920D01*
X130799511Y-107067129D01*
X130813504Y-106934000D01*
X130813503Y-106933997D01*
X130813504Y-106933995D01*
X130813504Y-106929500D01*
X130833189Y-106862461D01*
X130885993Y-106816706D01*
X130937504Y-106805500D01*
X131759176Y-106805500D01*
X131959022Y-106773847D01*
X131982477Y-106766226D01*
X132151461Y-106711320D01*
X132331749Y-106619458D01*
X132495447Y-106500524D01*
X132638524Y-106357447D01*
X132757458Y-106193749D01*
X132849320Y-106013461D01*
X132891810Y-105882688D01*
X132931247Y-105825013D01*
X132995606Y-105797815D01*
X133064452Y-105809730D01*
G37*
%TD.AperFunction*%
%TA.AperFunction,Conductor*%
G36*
X146979970Y-112101794D02*
G01*
X147020076Y-112126532D01*
X147020077Y-112126532D01*
X147020080Y-112126534D01*
X147120545Y-112159824D01*
X147185618Y-112181387D01*
X147195500Y-112182396D01*
X147261407Y-112189129D01*
X147326097Y-112215525D01*
X147366248Y-112272705D01*
X147369112Y-112342516D01*
X147333778Y-112402793D01*
X147271466Y-112434398D01*
X147261406Y-112435845D01*
X147185616Y-112443588D01*
X147020082Y-112498439D01*
X147020079Y-112498440D01*
X146912382Y-112564870D01*
X146847285Y-112583332D01*
X145786500Y-112583332D01*
X145719461Y-112563647D01*
X145673706Y-112510843D01*
X145662500Y-112459332D01*
X145662500Y-112207332D01*
X145682185Y-112140293D01*
X145734989Y-112094538D01*
X145786500Y-112083332D01*
X146914872Y-112083332D01*
X146979970Y-112101794D01*
G37*
%TD.AperFunction*%
%TA.AperFunction,Conductor*%
G36*
X122164834Y-94733583D02*
G01*
X122220767Y-94775455D01*
X122245184Y-94840919D01*
X122245500Y-94849765D01*
X122245500Y-97485228D01*
X122225815Y-97552267D01*
X122173011Y-97598022D01*
X122105315Y-97608167D01*
X122039384Y-97599487D01*
X122039381Y-97599486D01*
X122039375Y-97599486D01*
X121960653Y-97599486D01*
X121960647Y-97599486D01*
X121960643Y-97599487D01*
X121843253Y-97614941D01*
X121843251Y-97614942D01*
X121697174Y-97675449D01*
X121571732Y-97771704D01*
X121475477Y-97897146D01*
X121414970Y-98043223D01*
X121414969Y-98043225D01*
X121394332Y-98199984D01*
X121394332Y-98199987D01*
X121414969Y-98356746D01*
X121414970Y-98356748D01*
X121438477Y-98413500D01*
X121441184Y-98420033D01*
X121448653Y-98489502D01*
X121417378Y-98551982D01*
X121357289Y-98587634D01*
X121326623Y-98591486D01*
X121153500Y-98591486D01*
X121086461Y-98571801D01*
X121040706Y-98518997D01*
X121029500Y-98467486D01*
X121029499Y-96045541D01*
X121029798Y-96039460D01*
X121037385Y-95962443D01*
X121041112Y-95924605D01*
X121045852Y-95900782D01*
X121076694Y-95799114D01*
X121085991Y-95776669D01*
X121136076Y-95682968D01*
X121149574Y-95662768D01*
X121222906Y-95573416D01*
X121226956Y-95568948D01*
X121279100Y-95516806D01*
X121279100Y-95516805D01*
X121287996Y-95507910D01*
X121288008Y-95507894D01*
X122033820Y-94762083D01*
X122095142Y-94728599D01*
X122164834Y-94733583D01*
G37*
%TD.AperFunction*%
%TA.AperFunction,Conductor*%
G36*
X136913867Y-90900185D02*
G01*
X136934509Y-90916818D01*
X137991894Y-91974204D01*
X137997235Y-91980294D01*
X138019252Y-92008987D01*
X138030620Y-92017710D01*
X138049921Y-92032521D01*
X138049925Y-92032525D01*
X138075067Y-92051816D01*
X138093521Y-92065976D01*
X138146364Y-92106524D01*
X138146367Y-92106525D01*
X138146368Y-92106526D01*
X138220376Y-92137180D01*
X138294389Y-92167838D01*
X138413354Y-92183500D01*
X138413359Y-92183500D01*
X138415144Y-92183735D01*
X138415162Y-92183737D01*
X138438608Y-92186823D01*
X138453238Y-92188750D01*
X138453239Y-92188750D01*
X138453240Y-92188750D01*
X138463711Y-92187371D01*
X138489087Y-92184030D01*
X138497185Y-92183500D01*
X138691302Y-92183500D01*
X138758341Y-92203185D01*
X138804096Y-92255989D01*
X138814040Y-92325147D01*
X138790569Y-92381811D01*
X138776720Y-92400311D01*
X138760266Y-92412628D01*
X138761319Y-92413681D01*
X138725000Y-92450000D01*
X138725000Y-92497838D01*
X138725285Y-92500488D01*
X138723249Y-92533024D01*
X138723840Y-92533088D01*
X138716500Y-92601345D01*
X138716500Y-93148644D01*
X138720596Y-93186748D01*
X138720596Y-93213252D01*
X138716500Y-93251355D01*
X138716500Y-93798644D01*
X138720596Y-93836747D01*
X138720596Y-93863250D01*
X138716500Y-93901353D01*
X138716500Y-94448644D01*
X138720596Y-94486748D01*
X138720596Y-94513252D01*
X138716500Y-94551355D01*
X138716500Y-95098644D01*
X138720596Y-95136748D01*
X138720596Y-95163252D01*
X138716500Y-95201355D01*
X138716500Y-95748644D01*
X138720596Y-95786748D01*
X138720596Y-95813252D01*
X138716500Y-95851355D01*
X138716500Y-96398644D01*
X138720596Y-96436747D01*
X138720596Y-96463250D01*
X138716500Y-96501353D01*
X138716500Y-96642469D01*
X138696815Y-96709508D01*
X138644011Y-96755263D01*
X138592506Y-96766469D01*
X138467242Y-96766474D01*
X138277600Y-96796519D01*
X138094978Y-96855869D01*
X138094977Y-96855869D01*
X137923908Y-96943046D01*
X137923899Y-96943052D01*
X137768572Y-97055920D01*
X137704432Y-97120069D01*
X136409319Y-98415181D01*
X136347996Y-98448666D01*
X136321638Y-98451500D01*
X135572370Y-98451500D01*
X135505331Y-98431815D01*
X135459576Y-98379011D01*
X135449632Y-98309853D01*
X135478657Y-98246297D01*
X135499484Y-98227183D01*
X135509901Y-98219613D01*
X135521253Y-98211366D01*
X135649040Y-98069444D01*
X135744527Y-97904056D01*
X135803542Y-97722428D01*
X135823504Y-97532500D01*
X135803542Y-97342572D01*
X135744527Y-97160944D01*
X135649040Y-96995556D01*
X135521253Y-96853634D01*
X135366752Y-96741382D01*
X135192288Y-96663706D01*
X135192286Y-96663705D01*
X135005487Y-96624000D01*
X134814513Y-96624000D01*
X134627714Y-96663705D01*
X134457935Y-96739295D01*
X134388685Y-96748579D01*
X134325408Y-96718950D01*
X134288196Y-96659815D01*
X134283500Y-96626015D01*
X134283500Y-96501359D01*
X134283499Y-96501345D01*
X134279403Y-96463250D01*
X134279403Y-96436744D01*
X134283500Y-96398638D01*
X134283500Y-95851362D01*
X134283498Y-95851343D01*
X134279404Y-95813255D01*
X134279404Y-95786745D01*
X134283498Y-95748656D01*
X134283500Y-95748637D01*
X134283500Y-95201362D01*
X134283498Y-95201343D01*
X134279404Y-95163255D01*
X134279404Y-95136745D01*
X134283498Y-95098656D01*
X134283500Y-95098637D01*
X134283500Y-94551362D01*
X134283498Y-94551343D01*
X134279404Y-94513255D01*
X134279404Y-94486745D01*
X134283498Y-94448656D01*
X134283500Y-94448637D01*
X134283500Y-93901362D01*
X134283499Y-93901345D01*
X134279403Y-93863250D01*
X134279403Y-93836744D01*
X134283500Y-93798638D01*
X134283500Y-93251362D01*
X134281616Y-93233836D01*
X134279404Y-93213255D01*
X134279404Y-93186745D01*
X134283498Y-93148656D01*
X134283500Y-93148637D01*
X134283500Y-92601362D01*
X134283498Y-92601343D01*
X134279404Y-92563255D01*
X134279404Y-92536745D01*
X134283498Y-92498656D01*
X134283500Y-92498637D01*
X134283500Y-91951362D01*
X134283498Y-91951343D01*
X134279404Y-91913255D01*
X134279404Y-91886745D01*
X134283498Y-91848656D01*
X134283500Y-91848637D01*
X134283500Y-91301362D01*
X134283499Y-91301345D01*
X134276160Y-91233086D01*
X134276753Y-91233022D01*
X134274717Y-91200452D01*
X134274999Y-91197823D01*
X134275000Y-91197822D01*
X134275000Y-91150000D01*
X134252710Y-91127710D01*
X134223281Y-91100311D01*
X134207186Y-91078811D01*
X134182768Y-91013347D01*
X134197619Y-90945074D01*
X134247024Y-90895668D01*
X134306452Y-90880500D01*
X136846828Y-90880500D01*
X136913867Y-90900185D01*
G37*
%TD.AperFunction*%
%TA.AperFunction,Conductor*%
G36*
X131468039Y-90625685D02*
G01*
X131513794Y-90678489D01*
X131516659Y-90691659D01*
X131525000Y-90700000D01*
X131672216Y-90700000D01*
X131739255Y-90719685D01*
X131785010Y-90772489D01*
X131794954Y-90841647D01*
X131765929Y-90905203D01*
X131746524Y-90923269D01*
X131720853Y-90942485D01*
X131662731Y-90966155D01*
X131563089Y-90979273D01*
X131541150Y-90982162D01*
X131541149Y-90982162D01*
X131393118Y-91043479D01*
X131393119Y-91043479D01*
X131349083Y-91065497D01*
X131330061Y-91091863D01*
X131329503Y-91092294D01*
X131299891Y-91115016D01*
X131299884Y-91115022D01*
X131297928Y-91116523D01*
X131297925Y-91116525D01*
X131283662Y-91127469D01*
X131266011Y-91141014D01*
X131243997Y-91169703D01*
X131238645Y-91175805D01*
X131234269Y-91180181D01*
X131172946Y-91213666D01*
X131146588Y-91216500D01*
X126077885Y-91216500D01*
X126004000Y-91216500D01*
X125848952Y-91216500D01*
X125540554Y-91248914D01*
X125540549Y-91248914D01*
X125540549Y-91248915D01*
X125237237Y-91313385D01*
X125237236Y-91313386D01*
X124942320Y-91409209D01*
X124659025Y-91535340D01*
X124659018Y-91535343D01*
X124390477Y-91690385D01*
X124390475Y-91690386D01*
X124329562Y-91734642D01*
X124263756Y-91758121D01*
X124195702Y-91742295D01*
X124147008Y-91692189D01*
X124133133Y-91623710D01*
X124153574Y-91565435D01*
X124271785Y-91388521D01*
X124276706Y-91382108D01*
X124443123Y-91192345D01*
X124448845Y-91186623D01*
X124638608Y-91020206D01*
X124645021Y-91015285D01*
X124854872Y-90875067D01*
X124861885Y-90871016D01*
X125088257Y-90759383D01*
X125095716Y-90756293D01*
X125334721Y-90675162D01*
X125342543Y-90673067D01*
X125590076Y-90623829D01*
X125598101Y-90622772D01*
X125851974Y-90606132D01*
X125856023Y-90606000D01*
X125927885Y-90606000D01*
X131401000Y-90606000D01*
X131468039Y-90625685D01*
G37*
%TD.AperFunction*%
%TD*%
M02*
